<?xml version="1.0" encoding="UTF-8"?>
<svg version="1.1" xmlns="http://www.w3.org/2000/svg" width="225" height="225">
<path d="M0 0 C74.25 0 148.5 0 225 0 C225 74.25 225 148.5 225 225 C150.75 225 76.5 225 0 225 C0 150.75 0 76.5 0 0 Z " fill="#8D6748" transform="translate(0,0)"/>
<path d="M0 0 C3.81524282 0.28344541 5.88820712 1.28866352 9.20043945 3.17529297 C10.31169189 3.80048828 11.42294434 4.42568359 12.56787109 5.06982422 C13.75159717 5.75304784 14.93510485 6.43664997 16.1184082 7.12060547 C17.34628589 7.81820059 18.57472506 8.51480831 19.80371094 9.21044922 C27.51107026 13.58578097 35.17150626 18.04335698 42.78637695 22.57763672 C46.41632865 24.7326835 50.0708589 26.84267555 53.73168945 28.94482422 C54.3023262 29.27257843 54.87296295 29.60033264 55.46089172 29.9380188 C58.29233029 31.56382263 61.12526052 33.18688876 63.96044922 34.80615234 C69.16635383 37.79442389 74.34851609 40.82156181 79.4699707 43.95263672 C80.79569092 44.75858276 80.79569092 44.75858276 82.14819336 45.58081055 C84.62963783 47.49538057 85.24679945 48.30892843 86.3059082 51.24560547 C86.51271713 54.24134794 86.60994996 57.14515623 86.61230469 60.14160156 C86.6206282 61.03962997 86.62895172 61.93765839 86.63752747 62.86289978 C86.66162343 65.83165827 86.67039889 68.80019706 86.67700195 71.76904297 C86.68596822 73.83403591 86.69509007 75.89902818 86.70436096 77.96401978 C86.72085216 82.2932493 86.72855138 86.62240147 86.73144531 90.95166016 C86.73683078 96.49574567 86.77451742 102.03910315 86.82018948 107.58298302 C86.84994851 111.84840544 86.85716862 116.11365225 86.85817146 120.37916946 C86.86237564 122.42290203 86.87481782 124.46663503 86.89568901 126.51026535 C86.92258052 129.37099339 86.91778467 132.23002992 86.90527344 135.09082031 C86.92752487 136.35346458 86.92752487 136.35346458 86.95022583 137.64161682 C86.8986736 141.78634687 86.58227092 144.42452973 83.92730713 147.70402527 C81.39325785 150.16091552 79.11644822 151.86883394 76.04418945 153.58544922 C75.02115723 154.16560791 73.998125 154.7457666 72.9440918 155.34350586 C71.84661621 155.95057373 70.74914062 156.5576416 69.6184082 157.18310547 C67.86361354 158.17419164 66.10882874 159.16529583 64.35467529 160.15751648 C62.53948553 161.18235965 60.72152043 162.20213598 58.90307617 163.22119141 C54.38235388 165.7592634 49.89222611 168.34970909 45.40405273 170.94482422 C43.25754289 172.18570917 41.10877747 173.42270064 38.95776367 174.65576172 C33.478339 177.80158829 28.04180534 181.00040099 22.65356445 184.30029297 C21.57671387 184.9518335 20.49986328 185.60337402 19.39038086 186.2746582 C17.35268806 187.51039479 15.3242644 188.76160201 13.30737305 190.03100586 C8.56942367 192.88647754 4.38216545 195.33680709 -1.27441406 194.89282227 C-6.8795692 193.39355214 -11.71603987 190.17386872 -16.6315918 187.18310547 C-17.8677354 186.4508359 -19.10506325 185.72056214 -20.34350586 184.9921875 C-22.8894522 183.49197904 -25.42936966 181.98227248 -27.96508789 180.46484375 C-32.52212825 177.743763 -37.1243709 175.10299609 -41.72924805 172.46386719 C-44.9271019 170.63034679 -48.11799202 168.78522468 -51.30737305 166.93701172 C-55.71193288 164.38621599 -60.12743179 161.85565461 -64.54956055 159.33544922 C-66.74367022 158.07650761 -68.93768418 156.81739916 -71.1315918 155.55810547 C-72.15091797 154.9817334 -73.17024414 154.40536133 -74.22045898 153.81152344 C-75.15921875 153.27027832 -76.09797852 152.7290332 -77.06518555 152.17138672 C-77.88946045 151.70128174 -78.71373535 151.23117676 -79.56298828 150.74682617 C-82.05103011 148.99416617 -83.19068328 147.9181889 -84.6940918 145.24560547 C-85.14824126 142.21620523 -85.11404222 139.20874451 -85.09814453 136.15014648 C-85.10500778 135.23100464 -85.11187103 134.31186279 -85.11894226 133.36486816 C-85.13724494 130.32625891 -85.13336773 127.28816427 -85.12768555 124.24951172 C-85.13224573 122.13728161 -85.13755082 120.02505299 -85.14356995 117.91282654 C-85.15250792 113.48519871 -85.15007012 109.05775118 -85.14013672 104.63012695 C-85.1286473 98.95598306 -85.14885493 93.28246151 -85.17805386 87.60839939 C-85.19639975 83.24606878 -85.19612657 78.88388774 -85.19041634 74.52152824 C-85.19026292 72.42954574 -85.19632406 70.33755323 -85.20870781 68.24560738 C-85.223585 65.3201608 -85.21296448 62.39586941 -85.19580078 59.47045898 C-85.20546875 58.60639938 -85.21513672 57.74233978 -85.22509766 56.85209656 C-85.1754277 52.80927269 -85.0202043 50.76021227 -82.80776978 47.26898193 C-80.575118 45.13171453 -78.50541613 43.71748694 -75.78393555 42.25732422 C-74.80811523 41.72429688 -73.83229492 41.19126953 -72.8269043 40.64208984 C-71.77245117 40.078125 -70.71799805 39.51416016 -69.6315918 38.93310547 C-67.35778112 37.69007128 -65.08570263 36.44386431 -62.81518555 35.19482422 C-62.22913544 34.87319305 -61.64308533 34.55156189 -61.03927612 34.22018433 C-54.66971363 30.71001251 -48.4324979 26.9829329 -42.1940918 23.24560547 C-31.99116771 17.1462979 -21.69708743 11.25297231 -11.29760742 5.49755859 C-10.31211914 4.95164062 -9.32663086 4.40572266 -8.3112793 3.84326172 C-7.44100098 3.36381104 -6.57072266 2.88436035 -5.67407227 2.39038086 C-1.82794044 0.16664323 -1.82794044 0.16664323 0 0 Z " fill="#8F694B" transform="translate(111.694091796875,14.75439453125)"/>
<path d="M0 0 C35.97 0 71.94 0 109 0 C105.95656937 2.28257297 103.11311095 4.16935817 99.8359375 6.046875 C98.80984375 6.63662109 97.78375 7.22636719 96.7265625 7.83398438 C95.06753906 8.78241211 95.06753906 8.78241211 93.375 9.75 C92.20817378 10.41964393 91.04150991 11.08957084 89.875 11.75976562 C87.45212488 13.15148769 85.02855654 14.54199104 82.60449219 15.93164062 C77.06309997 19.10971016 71.53204876 22.30570432 66 25.5 C59.9066036 29.01670459 53.81284219 32.53276344 47.71557617 36.04275513 C45.94954478 37.05947198 44.18372569 38.07655658 42.41796875 39.09375 C40.21265845 40.36400873 38.00695784 41.63359018 35.80078125 42.90234375 C33.81007843 44.04935562 31.82168045 45.20037974 29.8359375 46.35595703 C27.93249354 47.45941705 26.0208275 48.54880507 24.1015625 49.62451172 C23.20179687 50.13900879 22.30203125 50.65350586 21.375 51.18359375 C20.57835938 51.6314624 19.78171875 52.07933105 18.9609375 52.54077148 C16.68537164 54.23413019 16.06124378 55.39141325 15 58 C14.70268937 60.21585088 14.70268937 60.21585088 14.74603271 62.59216309 C14.74039307 63.5090239 14.73475342 64.4258847 14.72894287 65.37052917 C14.73299133 66.36909439 14.73703979 67.36765961 14.74121094 68.39648438 C14.7377063 69.4537825 14.73420166 70.51108063 14.73059082 71.60041809 C14.72178233 75.09826202 14.72761966 78.59590398 14.734375 82.09375 C14.7330281 84.52225788 14.73108736 86.9507655 14.72857666 89.37927246 C14.72562659 94.47015957 14.72991936 99.56097651 14.73925781 104.65185547 C14.7506522 111.18236628 14.74409212 117.71271269 14.73211288 124.24321747 C14.72489119 129.25829307 14.72718366 134.2733296 14.73236847 139.28840637 C14.7337041 141.69659952 14.73206026 144.1047962 14.72740936 146.51298523 C14.72233914 149.87659117 14.73006162 153.23992964 14.74121094 156.60351562 C14.73716248 157.60208084 14.73311401 158.60064606 14.72894287 159.62947083 C14.73740234 161.00476204 14.73740234 161.00476204 14.74603271 162.40783691 C14.74716379 163.60021847 14.74716379 163.60021847 14.74831772 164.81668854 C15.03445822 167.29892067 15.6876699 168.88199339 17 171 C19.26751435 172.69816608 19.26751435 172.69816608 22.0390625 174.1796875 C23.60333984 175.06720703 23.60333984 175.06720703 25.19921875 175.97265625 C26.32972656 176.60042969 27.46023437 177.22820312 28.625 177.875 C29.80667199 178.5417608 30.98765267 179.20974813 32.16796875 179.87890625 C34.59587167 181.25475901 37.02617139 182.62623058 39.45800781 183.99511719 C44.67281218 186.93813258 49.83513378 189.97048235 55 193 C72.91970593 203.47276814 90.87012221 213.89437326 109 224 C109 224.33 109 224.66 109 225 C73.03 225 37.06 225 0 225 C0 150.75 0 76.5 0 0 Z " fill="#FDFDFD" transform="translate(0,0)"/>
<path d="M0 0 C36.3 0 72.6 0 110 0 C110 74.25 110 148.5 110 225 C73.7 225 37.4 225 0 225 C2.460324 223.359784 4.9041109 221.89519621 7.48046875 220.453125 C8.38450439 219.94539551 9.28854004 219.43766602 10.2199707 218.91455078 C11.19925537 218.36524902 12.17854004 217.81594727 13.1875 217.25 C22.43665527 212.04275543 31.62845858 206.74571871 40.78808594 201.3828125 C47.20518582 197.62686669 53.63541802 193.89491783 60.07885742 190.18432617 C63.36560324 188.29140714 66.64972151 186.39399235 69.93359375 184.49609375 C73.72861533 182.30406446 77.53239238 180.12923505 81.34765625 177.97265625 C82.89852325 177.08608749 84.44931095 176.19937998 86 175.3125 C86.69407959 174.92674805 87.38815918 174.54099609 88.10327148 174.14355469 C91.59841674 172.12987595 93.55205641 170.77350958 95 167 C95.29731063 164.78414912 95.29731063 164.78414912 95.25396729 162.40783691 C95.25960693 161.4909761 95.26524658 160.5741153 95.27105713 159.62947083 C95.26700867 158.63090561 95.26296021 157.63234039 95.25878906 156.60351562 C95.2622937 155.5462175 95.26579834 154.48891937 95.26940918 153.39958191 C95.27821767 149.90173798 95.27238034 146.40409602 95.265625 142.90625 C95.2669719 140.47774212 95.26891264 138.0492345 95.27142334 135.62072754 C95.27437341 130.52984043 95.27008064 125.43902349 95.26074219 120.34814453 C95.2493478 113.81763372 95.25590788 107.28728731 95.26788712 100.75678253 C95.27510881 95.74170693 95.27281634 90.7266704 95.26763153 85.71159363 C95.2662959 83.30340048 95.26793974 80.8952038 95.27259064 78.48701477 C95.27766086 75.12340883 95.26993838 71.76007036 95.25878906 68.39648438 C95.26283752 67.39791916 95.26688599 66.39935394 95.27105713 65.37052917 C95.26541748 64.45366837 95.25977783 63.53680756 95.25396729 62.59216309 C95.25321323 61.79724205 95.25245918 61.00232101 95.25168228 60.18331146 C94.96554178 57.70107933 94.3123301 56.11800661 93 54 C90.73248565 52.30183392 90.73248565 52.30183392 87.9609375 50.8203125 C86.91808594 50.22863281 85.87523437 49.63695312 84.80078125 49.02734375 C83.67027344 48.39957031 82.53976563 47.77179687 81.375 47.125 C80.19332801 46.4582392 79.01234733 45.79025187 77.83203125 45.12109375 C75.40412833 43.74524099 72.97382861 42.37376942 70.54199219 41.00488281 C65.32718884 38.06186799 60.1648328 35.02957307 55 32 C38.53666612 22.37629351 22.0305833 12.82334698 5.44140625 3.41796875 C3.58919916 2.34220687 1.7822072 1.18813813 0 0 Z " fill="#FDFDFD" transform="translate(115,0)"/>
<path d="M0 0 C3.81524282 0.28344541 5.88820712 1.28866352 9.20043945 3.17529297 C10.31169189 3.80048828 11.42294434 4.42568359 12.56787109 5.06982422 C13.75159717 5.75304784 14.93510485 6.43664997 16.1184082 7.12060547 C17.34628589 7.81820059 18.57472506 8.51480831 19.80371094 9.21044922 C27.51107026 13.58578097 35.17150626 18.04335698 42.78637695 22.57763672 C46.41632865 24.7326835 50.0708589 26.84267555 53.73168945 28.94482422 C54.3023262 29.27257843 54.87296295 29.60033264 55.46089172 29.9380188 C58.29233029 31.56382263 61.12526052 33.18688876 63.96044922 34.80615234 C69.16635383 37.79442389 74.34851609 40.82156181 79.4699707 43.95263672 C80.79569092 44.75858276 80.79569092 44.75858276 82.14819336 45.58081055 C84.62963783 47.49538057 85.24679945 48.30892843 86.3059082 51.24560547 C86.51271713 54.24134794 86.60994996 57.14515623 86.61230469 60.14160156 C86.6206282 61.03962997 86.62895172 61.93765839 86.63752747 62.86289978 C86.66162343 65.83165827 86.67039889 68.80019706 86.67700195 71.76904297 C86.68596822 73.83403591 86.69509007 75.89902818 86.70436096 77.96401978 C86.72085216 82.2932493 86.72855138 86.62240147 86.73144531 90.95166016 C86.73683078 96.49574567 86.77451742 102.03910315 86.82018948 107.58298302 C86.84994851 111.84840544 86.85716862 116.11365225 86.85817146 120.37916946 C86.86237564 122.42290203 86.87481782 124.46663503 86.89568901 126.51026535 C86.92258052 129.37099339 86.91778467 132.23002992 86.90527344 135.09082031 C86.92752487 136.35346458 86.92752487 136.35346458 86.95022583 137.64161682 C86.8986736 141.78634687 86.58227092 144.42452973 83.92730713 147.70402527 C81.39325785 150.16091552 79.11644822 151.86883394 76.04418945 153.58544922 C75.02115723 154.16560791 73.998125 154.7457666 72.9440918 155.34350586 C71.84661621 155.95057373 70.74914062 156.5576416 69.6184082 157.18310547 C67.86361354 158.17419164 66.10882874 159.16529583 64.35467529 160.15751648 C62.53948553 161.18235965 60.72152043 162.20213598 58.90307617 163.22119141 C54.38235388 165.7592634 49.89222611 168.34970909 45.40405273 170.94482422 C43.25754289 172.18570917 41.10877747 173.42270064 38.95776367 174.65576172 C33.478339 177.80158829 28.04180534 181.00040099 22.65356445 184.30029297 C21.57671387 184.9518335 20.49986328 185.60337402 19.39038086 186.2746582 C17.35268806 187.51039479 15.3242644 188.76160201 13.30737305 190.03100586 C8.56942367 192.88647754 4.38216545 195.33680709 -1.27441406 194.89282227 C-6.8795692 193.39355214 -11.71603987 190.17386872 -16.6315918 187.18310547 C-17.8677354 186.4508359 -19.10506325 185.72056214 -20.34350586 184.9921875 C-22.8894522 183.49197904 -25.42936966 181.98227248 -27.96508789 180.46484375 C-32.52212825 177.743763 -37.1243709 175.10299609 -41.72924805 172.46386719 C-44.9271019 170.63034679 -48.11799202 168.78522468 -51.30737305 166.93701172 C-55.71193288 164.38621599 -60.12743179 161.85565461 -64.54956055 159.33544922 C-66.74367022 158.07650761 -68.93768418 156.81739916 -71.1315918 155.55810547 C-72.15091797 154.9817334 -73.17024414 154.40536133 -74.22045898 153.81152344 C-75.15921875 153.27027832 -76.09797852 152.7290332 -77.06518555 152.17138672 C-77.88946045 151.70128174 -78.71373535 151.23117676 -79.56298828 150.74682617 C-82.05103011 148.99416617 -83.19068328 147.9181889 -84.6940918 145.24560547 C-85.14824126 142.21620523 -85.11404222 139.20874451 -85.09814453 136.15014648 C-85.10500778 135.23100464 -85.11187103 134.31186279 -85.11894226 133.36486816 C-85.13724494 130.32625891 -85.13336773 127.28816427 -85.12768555 124.24951172 C-85.13224573 122.13728161 -85.13755082 120.02505299 -85.14356995 117.91282654 C-85.15250792 113.48519871 -85.15007012 109.05775118 -85.14013672 104.63012695 C-85.1286473 98.95598306 -85.14885493 93.28246151 -85.17805386 87.60839939 C-85.19639975 83.24606878 -85.19612657 78.88388774 -85.19041634 74.52152824 C-85.19026292 72.42954574 -85.19632406 70.33755323 -85.20870781 68.24560738 C-85.223585 65.3201608 -85.21296448 62.39586941 -85.19580078 59.47045898 C-85.20546875 58.60639938 -85.21513672 57.74233978 -85.22509766 56.85209656 C-85.1754277 52.80927269 -85.0202043 50.76021227 -82.80776978 47.26898193 C-80.575118 45.13171453 -78.50541613 43.71748694 -75.78393555 42.25732422 C-74.80811523 41.72429688 -73.83229492 41.19126953 -72.8269043 40.64208984 C-71.77245117 40.078125 -70.71799805 39.51416016 -69.6315918 38.93310547 C-67.35778112 37.69007128 -65.08570263 36.44386431 -62.81518555 35.19482422 C-62.22913544 34.87319305 -61.64308533 34.55156189 -61.03927612 34.22018433 C-54.66971363 30.71001251 -48.4324979 26.9829329 -42.1940918 23.24560547 C-31.99116771 17.1462979 -21.69708743 11.25297231 -11.29760742 5.49755859 C-10.31211914 4.95164062 -9.32663086 4.40572266 -8.3112793 3.84326172 C-7.44100098 3.36381104 -6.57072266 2.88436035 -5.67407227 2.39038086 C-1.82794044 0.16664323 -1.82794044 0.16664323 0 0 Z M-6.36987305 6.59716797 C-7.26730225 7.11126221 -8.16473145 7.62535645 -9.08935547 8.1550293 C-10.05204346 8.72116943 -11.01473145 9.28730957 -12.0065918 9.87060547 C-13.02277588 10.45672607 -14.03895996 11.04284668 -15.0859375 11.64672852 C-18.29534403 13.50176993 -21.4954197 15.3721255 -24.6940918 17.24560547 C-26.64960283 18.38530275 -28.60532628 19.52463564 -30.5612793 20.66357422 C-33.48092178 22.3648798 -36.39915013 24.06841033 -39.31347656 25.77880859 C-44.9471793 29.0815926 -50.60408655 32.33777379 -56.29174805 35.54638672 C-57.5779764 36.27381937 -58.86419067 37.00127692 -60.15039062 37.72875977 C-62.63197577 39.13189848 -65.11813502 40.52645425 -67.60693359 41.91674805 C-68.73397705 42.55378662 -69.86102051 43.1908252 -71.0222168 43.84716797 C-72.0215625 44.40742676 -73.0209082 44.96768555 -74.05053711 45.54492188 C-76.85564651 47.3495388 -78.6665304 48.58325052 -80.6940918 51.24560547 C-81.29295138 54.21783714 -81.24050722 57.14978138 -81.21166992 60.17333984 C-81.2186792 61.07458084 -81.22568848 61.97582184 -81.23291016 62.90437317 C-81.25051324 65.88301416 -81.23885911 68.86070484 -81.2253418 71.83935547 C-81.22803604 73.90914085 -81.2319179 75.97892501 -81.23693848 78.04870605 C-81.24283667 82.38643444 -81.23426008 86.72383335 -81.21557617 91.06152344 C-81.19278663 96.62369767 -81.20590797 102.18509989 -81.22986603 107.74724579 C-81.24431522 112.02119776 -81.23972201 116.29496648 -81.22935486 120.56892395 C-81.22668515 122.61985872 -81.22996588 124.67081008 -81.23927307 126.72172546 C-81.24942404 129.58755609 -81.2339578 132.45213387 -81.21166992 135.31787109 C-81.21976685 136.16682449 -81.22786377 137.01577789 -81.23620605 137.89045715 C-81.18251379 142.66355714 -81.18251379 142.66355714 -78.79827881 146.71450806 C-76.62367629 148.29684284 -74.47305605 149.69096112 -72.1159668 150.98779297 C-71.21531494 151.48899658 -70.31466309 151.9902002 -69.38671875 152.5065918 C-68.41565186 153.03921631 -67.44458496 153.57184082 -66.4440918 154.12060547 C-64.34820791 155.28708091 -62.25318127 156.45509772 -60.15893555 157.62451172 C-58.54607666 158.52387451 -58.54607666 158.52387451 -56.90063477 159.44140625 C-51.9011014 162.25445266 -46.95450281 165.15554666 -42.0065918 168.05810547 C-40.0248983 169.21188414 -38.04312569 170.36552695 -36.0612793 171.51904297 C-32.06692012 173.84792749 -28.0886712 176.20135356 -24.12171936 178.57643127 C-21.5856361 180.08995396 -19.04044807 181.58770444 -16.49349976 183.08285522 C-15.2633812 183.80976454 -14.03721405 184.54340734 -12.81533813 185.28408813 C-11.106966 186.31862904 -9.38316825 187.3275644 -7.65893555 188.33544922 C-6.67530029 188.92189209 -5.69166504 189.50833496 -4.67822266 190.11254883 C-0.09069893 191.85440415 3.45081179 191.07728604 7.859375 189.10083008 C8.64997314 188.62137939 9.44057129 188.14192871 10.25512695 187.64794922 C11.17116699 187.10195068 12.08720703 186.55595215 13.03100586 185.9934082 C14.00859863 185.3960083 14.98619141 184.7986084 15.9934082 184.18310547 C18.13966102 182.90037756 20.28683468 181.61918943 22.43481445 180.33935547 C23.55645996 179.66775391 24.67810547 178.99615234 25.83374023 178.30419922 C31.06388151 175.18910855 36.36274834 172.19431745 41.65716553 169.19030762 C51.09536918 163.83091749 60.50606352 158.42404481 69.8684082 152.93310547 C70.78444824 152.39999756 71.70048828 151.86688965 72.64428711 151.31762695 C73.48266113 150.82335205 74.32103516 150.32907715 75.18481445 149.81982422 C75.9125708 149.3927417 76.64032715 148.96565918 77.39013672 148.52563477 C79.34486223 147.2195782 80.78739074 146.04049477 82.3059082 144.24560547 C82.61788113 141.24535365 82.74649704 138.45033112 82.74169922 135.44726562 C82.75681297 134.09803261 82.75681297 134.09803261 82.77223206 132.72154236 C82.80077266 129.74245845 82.80659178 126.76388016 82.80981445 123.78466797 C82.81945168 121.71584869 82.82954386 119.64703149 82.84007263 117.57821655 C82.85804954 113.23878235 82.86359209 108.89952742 82.86181641 104.56005859 C82.86151156 98.99886805 82.9024616 93.43882681 82.95413303 87.87790871 C82.98748776 83.60391968 82.99357425 79.33020862 82.99198723 75.05610275 C82.99552868 73.00595514 83.00880594 70.95580044 83.03198433 68.90578079 C83.06137875 66.03728015 83.05275941 63.17127512 83.03466797 60.30273438 C83.05152649 59.45580521 83.06838501 58.60887604 83.08575439 57.73628235 C83.05137699 53.36783377 83.05137699 53.36783377 81.02123451 49.63968086 C77.83095725 46.92427468 74.15228447 44.83241814 70.5090332 42.78466797 C69.39842529 42.15584717 68.28781738 41.52702637 67.14355469 40.87915039 C65.94767819 40.2096253 64.75179588 39.54011059 63.5559082 38.87060547 C62.30819218 38.16599382 61.0608841 37.46065937 59.81396484 36.75463867 C57.8903386 35.66554542 55.96648997 34.57687082 54.04139709 33.4903717 C47.58481158 29.8458246 41.16256197 26.14319696 34.7434082 22.43310547 C33.67743408 21.81959229 32.61145996 21.2060791 31.51318359 20.57397461 C26.53218934 17.70466027 21.56674175 14.81444534 16.6340332 11.86279297 C15.76077393 11.34434814 14.88751465 10.82590332 13.98779297 10.29174805 C12.37861745 9.33462172 10.77450142 8.36891244 9.17675781 7.39282227 C8.11726929 6.76500854 8.11726929 6.76500854 7.03637695 6.12451172 C6.43204834 5.75914307 5.82771973 5.39377441 5.20507812 5.01733398 C0.77501423 3.21717561 -2.39385399 4.28888049 -6.36987305 6.59716797 Z " fill="#F6F3F2" transform="translate(111.694091796875,14.75439453125)"/>
<path d="M0 0 C8.25 0 16.5 0 25 0 C25 9.87325013 24.09631882 15.93389618 20.5 24.625 C17.56063645 27.41739537 16.45457579 27.50809776 12.5 27.75 C8.54542421 27.50809776 7.43936355 27.41739537 4.5 24.625 C0.90368118 15.93389618 0 9.87325013 0 0 Z " fill="#906B4D" transform="translate(98,68)"/>
<path d="M0 0 C2.94541791 2.45451493 4.57507906 4.39631805 6.25 7.875 C6.5909981 12.47847439 5.86060381 15.88540073 3.4375 19.8125 C-0.45814196 23.48553385 -3.23479274 24.33855019 -8.71875 24.1953125 C-12.10429158 23.66143864 -14.19180448 22.06773902 -16.75 19.875 C-19.49637397 15.46387195 -19.42014565 10.91743738 -18.75 5.875 C-14.56324353 -1.3022968 -7.62241676 -3.1182614 0 0 Z " fill="#F9F7F6" transform="translate(90.75,100.125)"/>
<path d="M0 0 C1.65 0 3.3 0 5 0 C7.01953125 2.1875 7.01953125 2.1875 8.8125 5 C9.41707031 5.928125 10.02164063 6.85625 10.64453125 7.8125 C11.09183594 8.534375 11.53914063 9.25625 12 10 C12.5775 9.278125 13.155 8.55625 13.75 7.8125 C14.4925 6.884375 15.235 5.95625 16 5 C16.66 4.071875 17.32 3.14375 18 2.1875 C18.66 1.465625 19.32 0.74375 20 0 C21.32 0 22.64 0 24 0 C24 7.92 24 15.84 24 24 C22.68 24 21.36 24 20 24 C19.67 19.05 19.34 14.1 19 9 C18.05125 10.485 17.1025 11.97 16.125 13.5 C14.5078125 16.03125 14.5078125 16.03125 13 18 C12.34 18 11.68 18 11 18 C9.12422691 15.45349592 7.61674188 12.72293369 6 10 C5.67 14.95 5.34 19.9 5 25 C3.35 25 1.7 25 0 25 C0 16.75 0 8.5 0 0 Z " fill="#F6F4F2" transform="translate(38,99)"/>
<path d="M0 0 C1.65 0 3.3 0 5 0 C5 3.3 5 6.6 5 10 C8.63 10 12.26 10 16 10 C16 6.7 16 3.4 16 0 C17.65 0 19.3 0 21 0 C21 8.25 21 16.5 21 25 C19.35 25 17.7 25 16 25 C16 21.7 16 18.4 16 15 C12.37 15 8.74 15 5 15 C5 18.3 5 21.6 5 25 C3.35 25 1.7 25 0 25 C0 16.75 0 8.5 0 0 Z " fill="#ECE7E3" transform="translate(135,99)"/>
<path d="M0 0 C8.25 0 16.5 0 25 0 C25 9.87325013 24.09631882 15.93389618 20.5 24.625 C17.56063645 27.41739537 16.45457579 27.50809776 12.5 27.75 C8.54542421 27.50809776 7.43936355 27.41739537 4.5 24.625 C0.90368118 15.93389618 0 9.87325013 0 0 Z M4 4 C3.77409244 11.49024181 3.77409244 11.49024181 5.4375 18 C5.70433594 18.7425 5.97117187 19.485 6.24609375 20.25 C6.86869211 21.99190562 6.86869211 21.99190562 8 23 C13.81992619 23.72956022 13.81992619 23.72956022 18.9375 21.5 C21.58170673 15.27833711 22 10.80715372 22 4 C16.06 4 10.12 4 4 4 Z " fill="#F5F2F0" transform="translate(98,68)"/>
<path d="M0 0 C2.34643555 0.22705078 2.34643555 0.22705078 5 1 C6.39379883 2.90185547 6.39379883 2.90185547 7.45703125 5.3671875 C8.04194336 6.69556641 8.04194336 6.69556641 8.63867188 8.05078125 C9.02603516 8.98277344 9.41339844 9.91476563 9.8125 10.875 C10.42254883 12.26138672 10.42254883 12.26138672 11.04492188 13.67578125 C14 20.51964286 14 20.51964286 14 24 C12.35 23.67 10.7 23.34 9 23 C8.67 22.01 8.34 21.02 8 20 C4.04 19.67 0.08 19.34 -4 19 C-4.66 20.98 -5.32 22.96 -6 25 C-7.32 25 -8.64 25 -10 25 C-9.39768601 21.43330196 -8.43842499 18.42191371 -6.93359375 15.13671875 C-6.53076172 14.25048828 -6.12792969 13.36425781 -5.71289062 12.45117188 C-5.29201172 11.53916016 -4.87113281 10.62714844 -4.4375 9.6875 C-4.01275391 8.75615234 -3.58800781 7.82480469 -3.15039062 6.86523438 C-2.10493657 4.5746328 -1.05468244 2.28636341 0 0 Z " fill="#F7F5F3" transform="translate(174,99)"/>
<path d="M0 0 C3.0625 1.5 3.0625 1.5 5 3 C4.01 4.485 4.01 4.485 3 6 C2.484375 5.835 1.96875 5.67 1.4375 5.5 C-1.80842738 4.83416874 -4.69543832 4.75966824 -8 5 C-10.17162034 6.58850007 -10.89981898 7.50180248 -11.43359375 10.15625 C-11.52684818 14.95889163 -11.52684818 14.95889163 -9.4375 19.125 C-6.02717438 20.34921945 -3.5162207 19.69068621 0 19 C1.32 19 2.64 19 4 19 C4 19.99 4 20.98 4 22 C0.66250643 24.8160102 -2.56492534 25.64140198 -6.93359375 25.4921875 C-10.77873555 24.57633142 -13.50343318 21.97417091 -16 19 C-17.60288305 14.19135086 -17.77236515 9.82928589 -15.8125 5.1875 C-11.39365848 -0.14558459 -6.63281959 -0.93555141 0 0 Z " fill="#F8F5F4" transform="translate(122,99)"/>
<path d="M0 0 C4.10703441 0.85563217 5.55401113 2.24378009 8 5.625 C8.625 9.125 8.625 9.125 8 12.625 C5.52506641 16.04623173 4.11736219 17.41977021 -0.0625 18.1875 C-3.61734581 17.50678485 -4.777046 16.42427541 -7 13.625 C-8.44430855 10.73638291 -8.37688506 8.82852299 -8 5.625 C-5.54405875 2.30225596 -4.0743356 0.84881992 0 0 Z " fill="#8E684A" transform="translate(84,102.375)"/>
<path d="M0 0 C1 4 1 4 0 6.75 C-2 9 -2 9 -5.5 9.625 C-9 9 -9 9 -10.9375 6.625 C-12 4 -12 4 -12 2 C-8.04 1.34 -4.08 0.68 0 0 Z " fill="#F7F5F3" transform="translate(116,81)"/>
<path d="M0 0 C1.99097846 2.98646769 2.94124926 5.59687262 4 9 C1.36 9 -1.28 9 -4 9 C-2.68 6.03 -1.36 3.06 0 0 Z " fill="#8F6A4B" transform="translate(176,105)"/>
<path d="M0 0 C0.66 0 1.32 0 2 0 C4.09350689 3.4019487 4.17942163 6.05272412 4 10 C3.01 10.495 3.01 10.495 2 11 C-0.26881841 7.91440696 -1.05451946 6.57790624 -0.6875 2.6875 C-0.460625 1.800625 -0.23375 0.91375 0 0 Z " fill="#F4F1EF" transform="translate(111,54)"/>
<path d="M0 0 C1.5625 1.25 1.5625 1.25 3 3 C2.6875 5.1875 2.6875 5.1875 2 7 C0.4375 5.75 0.4375 5.75 -1 4 C-0.6875 1.8125 -0.6875 1.8125 0 0 Z " fill="#EAE4E0" transform="translate(107,58)"/>
</svg>
