<?xml version="1.0" encoding="UTF-8"?>
<svg version="1.1" xmlns="http://www.w3.org/2000/svg" width="256" height="256">
<path d="M0 0 C1.43552291 1.0236117 2.87279561 2.04477793 4.3125 3.0625 C8.50070548 6.22730414 11.72059583 9.92090506 15 14 C15.7734375 14.93714844 16.546875 15.87429687 17.34375 16.83984375 C30.74206065 33.39300437 39.30531563 52.02955099 43.55615234 72.86914062 C43.86613742 74.35734181 44.20193312 75.84029664 44.55712891 77.31835938 C46.06819187 83.93172997 46.1989244 90.11538995 45.875 96.875 C45.82496826 97.96490234 45.77493652 99.05480469 45.72338867 100.17773438 C44.46183022 122.6010769 38.11897104 142.59807078 27 162 C26.25252679 163.30985168 25.50512947 164.61974667 24.7578125 165.9296875 C24.17773438 166.94289062 23.59765625 167.95609375 23 169 C22.34 169 21.68 169 21 169 C20.72800781 169.5775 20.45601562 170.155 20.17578125 170.75 C17.16351841 176.51433021 13.20869092 181.12687085 8 185 C7.26652344 185.7528125 6.53304687 186.505625 5.77734375 187.28125 C-20.25662063 212.76597463 -53.70036634 219.09923743 -88.69360352 220.06933594 C-91 220 -91 220 -92 219 C-93.35262797 218.66993645 -94.71755053 218.3898368 -96.0859375 218.1328125 C-96.92987061 217.97087402 -97.77380371 217.80893555 -98.64331055 217.64208984 C-99.54476807 217.4714502 -100.44622559 217.30081055 -101.375 217.125 C-118.47068648 213.78814547 -118.47068648 213.78814547 -123 212 C-123.33 211.34 -123.66 210.68 -124 210 C-125.74577676 209.3041972 -125.74577676 209.3041972 -127.875 208.75 C-133.68550853 206.9209369 -138.75615533 204.06019088 -144 201 C-145.22589844 200.29230469 -145.22589844 200.29230469 -146.4765625 199.5703125 C-150.59616315 197.11019763 -150.59616315 197.11019763 -152 196 C-152 195.34 -152 194.68 -152 194 C-152.56460938 193.75121094 -153.12921875 193.50242188 -153.7109375 193.24609375 C-162.28355511 188.5794299 -169.90857095 179.58188509 -176 172 C-176 171.34 -176 170.68 -176 170 C-176.66 170 -177.32 170 -178 170 C-179.2890625 168.3203125 -179.2890625 168.3203125 -180.625 166.125 C-181.07101563 165.40570313 -181.51703125 164.68640625 -181.9765625 163.9453125 C-183 162 -183 162 -183 160 C-183.66 159.67 -184.32 159.34 -185 159 C-202.07462914 130.55942797 -205.59693197 94.95950692 -198 63 C-196.94720657 59.49068856 -195.56521286 56.30657509 -194 53 C-193.50628906 51.79214844 -193.01257813 50.58429688 -192.50390625 49.33984375 C-180.22157976 19.34304281 -156.91932209 -5.10541777 -126.99316406 -17.85498047 C-122.076004 -19.84458958 -117.08564739 -21.49824355 -112 -23 C-111.29488281 -23.21172852 -110.58976562 -23.42345703 -109.86328125 -23.64160156 C-71.66451873 -34.61765764 -30.60815903 -24.15245587 0 0 Z " fill="#015B0D" transform="translate(206,32)"/>
<path d="M0 0 C1.43552291 1.0236117 2.87279561 2.04477793 4.3125 3.0625 C8.50070548 6.22730414 11.72059583 9.92090506 15 14 C15.7734375 14.93714844 16.546875 15.87429687 17.34375 16.83984375 C30.74206065 33.39300437 39.30531563 52.02955099 43.55615234 72.86914062 C43.86613742 74.35734181 44.20193312 75.84029664 44.55712891 77.31835938 C46.06819187 83.93172997 46.1989244 90.11538995 45.875 96.875 C45.82496826 97.96490234 45.77493652 99.05480469 45.72338867 100.17773438 C44.46183022 122.6010769 38.11897104 142.59807078 27 162 C26.25252679 163.30985168 25.50512947 164.61974667 24.7578125 165.9296875 C24.17773438 166.94289062 23.59765625 167.95609375 23 169 C22.34 169 21.68 169 21 169 C20.72800781 169.5775 20.45601562 170.155 20.17578125 170.75 C17.16351841 176.51433021 13.20869092 181.12687085 8 185 C7.26652344 185.7528125 6.53304687 186.505625 5.77734375 187.28125 C-20.25662063 212.76597463 -53.70036634 219.09923743 -88.69360352 220.06933594 C-91 220 -91 220 -92 219 C-93.35262797 218.66993645 -94.71755053 218.3898368 -96.0859375 218.1328125 C-96.92987061 217.97087402 -97.77380371 217.80893555 -98.64331055 217.64208984 C-99.54476807 217.4714502 -100.44622559 217.30081055 -101.375 217.125 C-118.47068648 213.78814547 -118.47068648 213.78814547 -123 212 C-123.33 211.34 -123.66 210.68 -124 210 C-125.74577676 209.3041972 -125.74577676 209.3041972 -127.875 208.75 C-133.68550853 206.9209369 -138.75615533 204.06019088 -144 201 C-145.22589844 200.29230469 -145.22589844 200.29230469 -146.4765625 199.5703125 C-150.59616315 197.11019763 -150.59616315 197.11019763 -152 196 C-152 195.34 -152 194.68 -152 194 C-152.56460938 193.75121094 -153.12921875 193.50242188 -153.7109375 193.24609375 C-162.28355511 188.5794299 -169.90857095 179.58188509 -176 172 C-176 171.34 -176 170.68 -176 170 C-176.66 170 -177.32 170 -178 170 C-179.2890625 168.3203125 -179.2890625 168.3203125 -180.625 166.125 C-181.07101563 165.40570313 -181.51703125 164.68640625 -181.9765625 163.9453125 C-183 162 -183 162 -183 160 C-183.66 159.67 -184.32 159.34 -185 159 C-202.07462914 130.55942797 -205.59693197 94.95950692 -198 63 C-196.94720657 59.49068856 -195.56521286 56.30657509 -194 53 C-193.50628906 51.79214844 -193.01257813 50.58429688 -192.50390625 49.33984375 C-180.22157976 19.34304281 -156.91932209 -5.10541777 -126.99316406 -17.85498047 C-122.076004 -19.84458958 -117.08564739 -21.49824355 -112 -23 C-111.29488281 -23.21172852 -110.58976562 -23.42345703 -109.86328125 -23.64160156 C-71.66451873 -34.61765764 -30.60815903 -24.15245587 0 0 Z M-89 -13 C-89.37253906 -12.34128906 -89.74507813 -11.68257812 -90.12890625 -11.00390625 C-93.138691 -7.78048333 -96.97565016 -7.55415027 -101.1875 -6.6875 C-129.58029038 -0.15575326 -152.40828995 16.77218604 -168.125 41.25 C-181.80262753 64.26909917 -187.64400289 92.070677 -181.1875 118.4375 C-180.51463722 120.98121983 -179.77070011 123.48219681 -179 126 C-178.36745752 128.1019116 -177.74151816 130.20583256 -177.125 132.3125 C-176.85945313 133.13363281 -176.59390625 133.95476562 -176.3203125 134.80078125 C-175.91977165 137.5508361 -176.64282755 138.62979526 -178 141 C-178.67603558 146.85897499 -177.48100303 151.3006459 -174 156 C-170.79782208 158.68697603 -167.67129662 159.85185178 -163.6015625 160.75 C-159.41442286 162.20323718 -157.4005729 164.29806113 -154.6875 167.625 C-138.18754204 186.59316621 -113.21055734 199.28697125 -88.04980469 201.22753906 C-74.2551091 201.91403565 -61.21483536 201.09628507 -48 197 C-47.31647461 196.79101074 -46.63294922 196.58202148 -45.92871094 196.36669922 C-27.77506211 190.62649998 -11.51194832 180.17779509 0.6875 165.5 C4.39037748 161.16409383 7.21194862 159.9521045 12.6953125 158.7734375 C17.24652827 157.24608034 19.91809687 153.16380626 22 149 C22.23712942 144.09932534 22.24408262 141.33855974 20 137 C20.70588569 132.08462524 22.42255427 127.44529077 23.96484375 122.7421875 C30.98533174 97.36246109 27.69447312 69.0962182 15 46 C1.0569522 21.56245181 -20.88188114 3.01318971 -48 -5 C-52.20178944 -6.06421683 -56.42184266 -6.99680316 -60.671875 -7.84765625 C-64.57305998 -9.19841866 -65.66679621 -10.68466811 -68 -14 C-76.00540181 -18.3803142 -81.71165282 -18.04577882 -89 -13 Z " fill="#015B0D" transform="translate(206,32)"/>
<path d="M0 0 C5.46085842 2.53039777 5.46085842 2.53039777 7.0703125 5.23046875 C9.94087241 8.41035624 13.55317462 8.71011262 17.6328125 9.61328125 C46.57480676 16.70027862 69.43326008 32.50744388 85.25 58.015625 C90.49323972 66.74617419 94.21316507 75.37628956 96.8828125 85.23828125 C97.20121094 86.37007813 97.51960937 87.501875 97.84765625 88.66796875 C102.38326621 107.43745144 101.46023652 128.53066995 94.18359375 146.48828125 C92.56050121 151.16746694 93.37281323 152.70828344 94.8828125 157.23828125 C95.38482489 163.36283243 94.98209594 166.36345771 90.8828125 171.23828125 C87.95545969 174.16563406 85.68789357 175.32056178 81.7578125 176.23828125 C76.43158799 177.83703189 73.54718834 181.50481235 70.03173828 185.55395508 C58.20705145 199.14886588 41.95927022 208.01712008 24.8828125 213.23828125 C24.20444336 213.44855957 23.52607422 213.65883789 22.82714844 213.87548828 C-2.299782 221.3355995 -30.00366889 218.25596014 -53.23193359 206.265625 C-65.4246072 199.62139157 -77.11254966 190.93725168 -85.734375 179.953125 C-88.04918573 177.31575867 -88.77121342 176.51624942 -92.1171875 176.05078125 C-96.44262845 175.1970758 -99.67358459 174.33032219 -102.30859375 170.51171875 C-104.80716532 166.00210177 -105.6973152 162.45943052 -105.1171875 157.23828125 C-104.73304687 156.33851563 -104.34890625 155.43875 -103.953125 154.51171875 C-102.87730332 150.29892171 -103.91405048 147.42924972 -105.3671875 143.48828125 C-114.09049416 118.82910153 -111.8102086 91.62613397 -101.04760742 67.92041016 C-88.50763439 42.08707441 -66.75818029 22.77247753 -40.04296875 12.50390625 C-35.0719721 10.7989829 -29.92250582 9.70051357 -24.75048828 8.79370117 C-19.80730703 7.82236194 -17.91086609 6.36413065 -15.1171875 2.23828125 C-10.1684363 -0.95091397 -5.68343826 -2.04477945 0 0 Z M-58.44140625 36.59765625 C-78.19192739 51.25716959 -91.75004659 71.18051869 -96.578125 95.56640625 C-98.22763927 108.31670575 -98.24918695 122.76459557 -95.1171875 135.23828125 C-94.88386719 136.26050781 -94.65054688 137.28273438 -94.41015625 138.3359375 C-93.57590823 141.28818507 -92.79594603 143.66856149 -91.1171875 146.23828125 C-88.79299125 147.30027354 -86.83783201 147.59637435 -84.3046875 147.8671875 C-80.75892789 148.46870029 -79.23822324 150.4745074 -77.1171875 153.23828125 C-74.34442475 157.77552938 -75.18690197 162.22037748 -76.1171875 167.23828125 C-76.4471875 168.22828125 -76.7771875 169.21828125 -77.1171875 170.23828125 C-63.43432698 186.43370244 -46.74781151 197.08700059 -26.1171875 202.23828125 C-25.47120605 202.41343262 -24.82522461 202.58858398 -24.15966797 202.76904297 C-1.58932038 208.45857741 21.99094691 203.5049758 41.8828125 192.23828125 C51.21959103 186.38692561 61.38674945 178.9813021 66.8828125 169.23828125 C66.5528125 168.74328125 66.2228125 168.24828125 65.8828125 167.73828125 C64.21254553 163.56261383 64.06260923 159.47278098 65.60546875 155.26953125 C67.67985765 151.30551683 69.77167235 148.95922364 73.8828125 147.23828125 C77.6953125 146.55078125 77.6953125 146.55078125 80.8828125 146.23828125 C81.51249204 144.26059842 82.13628739 142.2810419 82.7578125 140.30078125 C83.10585937 139.19863281 83.45390625 138.09648437 83.8125 136.9609375 C86.19505468 128.67416886 87.242713 121.19896815 87.1953125 112.55078125 C87.19039795 111.49076904 87.1854834 110.43075684 87.18041992 109.33862305 C86.7968736 83.60561549 75.24496074 62.02789796 57.63671875 43.9296875 C46.24528341 33.20710708 28.41496564 22.90305042 12.5078125 21.61328125 C11.63382812 21.53851563 10.75984375 21.46375 9.859375 21.38671875 C8.88097656 21.31324219 8.88097656 21.31324219 7.8828125 21.23828125 C7.6559375 22.02203125 7.4290625 22.80578125 7.1953125 23.61328125 C5.8828125 26.23828125 5.8828125 26.23828125 3.4453125 27.48828125 C2.176875 27.85953125 2.176875 27.85953125 0.8828125 28.23828125 C-0.1071875 28.56828125 -1.0971875 28.89828125 -2.1171875 29.23828125 C-7.21981423 29.6162536 -9.9094536 29.1235845 -14.1171875 26.23828125 C-14.7771875 26.23828125 -15.4371875 26.23828125 -16.1171875 26.23828125 C-16.3646875 25.59890625 -16.6121875 24.95953125 -16.8671875 24.30078125 C-17.91002735 22.09102051 -17.91002735 22.09102051 -19.984375 21.5703125 C-32.02452849 19.69592963 -49.03695568 29.80810169 -58.44140625 36.59765625 Z " fill="#F9FBFA" transform="translate(133.1171875,15.76171875)"/>
<path d="M0 0 C3.48583365 2.15083353 5.63113296 4.12154338 7 8 C7.38290462 9.99110401 7.72604615 11.99100513 8 14 C8.43828125 13.49210937 8.8765625 12.98421875 9.328125 12.4609375 C16.45703348 4.72346366 25.11482047 -0.30189267 35.69140625 -1.23828125 C45.77855812 -1.49903756 55.32269255 0.61923738 63.25 7.17578125 C72.77265819 17.10230217 73.31286922 28.8506479 73.3359375 41.90625 C73.3459227 43.88606873 73.3459227 43.88606873 73.35610962 45.90588379 C73.3680137 48.68614987 73.37179731 51.46629231 73.37060547 54.24658203 C73.370402 57.78701459 73.39776244 61.32664701 73.43214989 64.86688995 C73.45988507 68.27585371 73.45857045 71.68467514 73.4609375 75.09375 C73.47530853 76.35336548 73.48967957 77.61298096 73.50448608 78.9107666 C73.46779757 86.01524817 72.9238281 91.91768555 69 98 C66.05622327 100.6255306 64.42465356 100.9545014 60.5 101.375 C55.49009226 100.83822417 53.23362991 99.36433339 49.88696289 95.66308594 C46.76524008 90.80997136 47.45692584 85.08069742 47.49609375 79.515625 C47.48667252 78.30485291 47.47725128 77.09408081 47.46754456 75.84661865 C47.43890654 71.98090684 47.43581503 68.11580926 47.4375 64.25 C47.43388295 60.39856239 47.4242233 56.54757298 47.39674377 52.69622803 C47.38006724 50.30325929 47.37699059 47.91014368 47.38975525 45.51715088 C47.33860489 37.33533882 46.55291141 29.9091456 42 22.9375 C37.91383983 18.97903233 32.68446785 19.61040782 27.3046875 19.65234375 C21.32080848 20.28185348 18.02966058 23.18976219 13.6875 27.0625 C9.00257792 35.21773473 8.56640555 44.73742761 8.59375 53.93359375 C8.58291382 55.01455826 8.57207764 56.09552277 8.56091309 57.20924377 C8.51545318 61.77934844 8.5035093 66.34938732 8.48876953 70.91967773 C8.47309652 74.27868865 8.44013105 77.6372252 8.40625 80.99609375 C8.40927124 82.02633163 8.41229248 83.05656952 8.41540527 84.11802673 C8.34958223 90.38016504 7.64870286 93.90984667 3.5 98.75 C1.10492849 100.74589293 -1.20504322 101.02760197 -4.25 101.4375 C-8.63785312 100.9255838 -10.27303088 99.70662317 -13.51953125 96.8984375 C-17.17249724 92.21415921 -17.29439951 86.7842181 -17.2746582 81.0703125 C-17.27976913 80.29878845 -17.28488007 79.5272644 -17.29014587 78.73236084 C-17.30398154 76.19649375 -17.30308995 73.66090021 -17.30078125 71.125 C-17.30467093 69.35432841 -17.30900617 67.58365775 -17.31376648 65.81298828 C-17.32121531 62.10771657 -17.32094671 58.40254018 -17.31567383 54.69726562 C-17.30987497 49.95603539 -17.32682667 45.21519528 -17.3500185 40.47402954 C-17.36476878 36.81939423 -17.36562588 33.16485267 -17.36250877 29.51019287 C-17.36302114 27.76234157 -17.3682429 26.01448492 -17.37832069 24.2666626 C-17.39069575 21.8207479 -17.38388788 19.37559062 -17.37231445 16.9296875 C-17.37995819 16.21262634 -17.38760193 15.49556519 -17.39547729 14.7567749 C-17.33413069 8.87331362 -15.71570613 4.96801585 -11.875 0.5625 C-7.73292007 -1.6886304 -4.46344782 -1.27179911 0 0 Z " fill="#FAFCFA" transform="translate(100,78)"/>
</svg>
