<?xml version="1.0" encoding="UTF-8"?>
<svg version="1.1" xmlns="http://www.w3.org/2000/svg" width="460" height="460">
<path d="M0 0 C151.8 0 303.6 0 460 0 C460 151.8 460 303.6 460 460 C308.2 460 156.4 460 0 460 C0 308.2 0 156.4 0 0 Z " fill="#9C3393" transform="translate(0,0)"/>
<path d="M0 0 C10.90938193 9.79824118 19.16796419 20.42447353 25.109375 33.89453125 C25.45613281 34.6628125 25.80289063 35.43109375 26.16015625 36.22265625 C38.13729666 65.63370375 34.24744202 98.4691237 25.87011719 128.18701172 C25.0113759 131.24331496 24.17340801 134.30498959 23.3359375 137.3671875 C22.71951747 139.60568023 22.1023367 141.84396362 21.484375 144.08203125 C21.19530273 145.13342285 20.90623047 146.18481445 20.60839844 147.26806641 C19.24136214 152.16098908 17.79365839 156.94738112 15.94873047 161.68041992 C13.97590622 166.88447551 12.25692215 172.18227401 10.484375 177.45703125 C10.07703125 178.65005859 9.6696875 179.84308594 9.25 181.07226562 C7.36756561 186.67905283 5.61254386 191.98663482 5.109375 197.89453125 C6.19206665 197.93211548 6.19206665 197.93211548 7.29663086 197.97045898 C10.54691 198.08604427 13.79687188 198.20893899 17.046875 198.33203125 C18.18318359 198.37134766 19.31949219 198.41066406 20.49023438 198.45117188 C21.56982422 198.49306641 22.64941406 198.53496094 23.76171875 198.578125 C25.26206665 198.63311157 25.26206665 198.63311157 26.79272461 198.68920898 C29.109375 198.89453125 29.109375 198.89453125 30.109375 199.89453125 C30.24884882 213.25612342 25.76486081 227.19354381 21.98046875 239.88671875 C21.23405888 242.46400843 20.61510616 245.02409333 20.046875 247.64453125 C19.109375 250.89453125 19.109375 250.89453125 16.109375 252.89453125 C13.4835844 253.14900684 13.4835844 253.14900684 10.26213074 253.15522766 C8.43097214 253.16585487 8.43097214 253.16585487 6.56282043 253.17669678 C5.20748864 253.17440275 3.85215721 253.17189303 2.49682617 253.16918945 C1.07083875 253.17353647 -0.35514633 253.17871959 -1.78112793 253.18467712 C-5.65989199 253.19809165 -9.53855873 253.1986422 -13.41734147 253.19611382 C-16.66201901 253.19504399 -19.90667687 253.19992873 -23.1513502 253.20471925 C-30.81860712 253.21582671 -38.48581509 253.21624741 -46.15307617 253.21020508 C-54.03558291 253.20418777 -61.91791014 253.21641606 -69.80038625 253.23777515 C-76.58278655 253.25547079 -83.36513017 253.26137932 -90.14755267 253.2581374 C-94.19118443 253.25633421 -98.23468866 253.25886185 -102.27829933 253.27285194 C-106.09262104 253.28555272 -109.90666728 253.2833723 -113.72098541 253.27044106 C-115.76508319 253.26699677 -117.80918984 253.27816757 -119.85325623 253.29000854 C-138.5425406 253.18528456 -154.875904 248.03377117 -169.890625 236.89453125 C-170.89222656 236.15396484 -170.89222656 236.15396484 -171.9140625 235.3984375 C-189.06514255 221.70085547 -197.19904314 199.16119534 -199.69657898 177.98274231 C-200.21216452 172.43430889 -200.07651652 166.83940237 -200.07592773 161.27124023 C-200.07809011 158.99378057 -200.09622129 156.71682589 -200.11523438 154.43945312 C-200.17524212 139.39055043 -198.42287062 124.91317657 -195.203125 110.20703125 C-194.94402344 109.01440674 -194.68492187 107.82178223 -194.41796875 106.59301758 C-187.38348221 75.21208939 -175.35019705 44.97227441 -154.890625 19.89453125 C-153.83875 18.53328125 -153.83875 18.53328125 -152.765625 17.14453125 C-135.76938842 -3.25095265 -109.45890384 -16.91567807 -83.19140625 -19.828125 C-53.75469802 -22.04561951 -23.59008584 -19.64362411 0 0 Z " fill="#FEFEFE" transform="translate(247.890625,108.10546875)"/>
<path d="M0 0 C1.04510742 -0.00821777 1.04510742 -0.00821777 2.11132812 -0.01660156 C7.10418288 0.05202061 11.44176945 0.96799478 16.25 2.3125 C17.04148437 2.50070313 17.83296875 2.68890625 18.6484375 2.8828125 C28.54942521 5.66135055 35.72253222 12.5254106 40.77734375 21.30859375 C52.2511562 44.71273639 45.8983943 72.73211947 38.3984375 96.453125 C37.31900111 99.93419539 36.52382931 103.44305961 35.75927734 107.00488281 C34.90303982 110.88463212 33.88977163 114.7216866 32.875 118.5625 C32.65803467 119.38733887 32.44106934 120.21217773 32.2175293 121.06201172 C30.65715871 126.93211331 28.92349193 132.73103533 27.08203125 138.51953125 C26.3285012 141.04898658 25.75533361 143.5368131 25.25 146.125 C24.62224628 149.22498992 23.6421969 151.76747493 22.1875 154.57421875 C21.82527344 155.27893311 21.46304688 155.98364746 21.08984375 156.7097168 C20.81269531 157.23863525 20.53554687 157.76755371 20.25 158.3125 C12.52120329 158.40585842 4.79254275 158.47659439 -2.93667889 158.51974869 C-6.52708271 158.54047799 -10.11709615 158.56852042 -13.70727539 158.61425781 C-17.18271947 158.6582481 -20.65779206 158.68174676 -24.13349342 158.69200897 C-26.0813639 158.70281783 -28.02908834 158.73395527 -29.97673035 158.76568604 C-42.13644203 158.7686966 -52.70482561 156.70030599 -61.58984375 147.9453125 C-70.58485368 136.98213584 -72.16184721 125.47728745 -72.125 111.8125 C-72.12512085 111.12775604 -72.1252417 110.44301208 -72.12536621 109.73751831 C-72.09336385 96.9516457 -70.60669609 84.77718433 -67.75 72.3125 C-67.57919922 71.54357422 -67.40839844 70.77464844 -67.23242188 69.98242188 C-66.19995945 65.38695185 -65.02611117 60.84752457 -63.75 56.3125 C-63.34201172 54.80429688 -63.34201172 54.80429688 -62.92578125 53.265625 C-57.09238452 33.73298437 -45.49889885 16.10698819 -27.4765625 6.04296875 C-18.7047296 1.81538863 -9.67737719 0.05493708 0 0 Z " fill="#9C3393" transform="translate(178.75,142.6875)"/>
<path d="M0 0 C1.2463623 0.01047363 2.49272461 0.02094727 3.77685547 0.03173828 C4.77143265 0.03598312 4.77143265 0.03598312 5.78610229 0.04031372 C7.9055988 0.05151643 10.02467401 0.07662027 12.14404297 0.10205078 C13.58023479 0.11208051 15.01643322 0.12120637 16.45263672 0.12939453 C19.97490925 0.15145578 23.496935 0.18598585 27.01904297 0.22705078 C26.45992975 7.4985019 25.259601 14.48202065 23.70654297 21.60205078 C23.2542122 23.72954704 22.80239692 25.85715295 22.35107422 27.98486328 C22.12629395 29.03706055 21.90151367 30.08925781 21.66992188 31.17333984 C19.2857564 42.35906443 17.03277856 53.54974516 15.26904297 64.85205078 C15.07737549 66.04169434 15.07737549 66.04169434 14.88183594 67.25537109 C13.21363139 77.79466974 13.21363139 77.79466974 15.83154297 87.78955078 C17.85321671 90.44668571 17.85321671 90.44668571 21.01904297 91.22705078 C22.93811214 91.30971564 24.8599377 91.33445741 26.78076172 91.32470703 C27.89902344 91.32148438 29.01728516 91.31826172 30.16943359 91.31494141 C31.33667969 91.3065625 32.50392578 91.29818359 33.70654297 91.28955078 C34.88539063 91.28503906 36.06423828 91.28052734 37.27880859 91.27587891 C40.19227086 91.26408351 43.1056316 91.24762349 46.01904297 91.22705078 C47.34533747 88.09032467 48.35593196 85.13143736 48.98388672 81.78564453 C49.14260254 80.96056396 49.30131836 80.1354834 49.46484375 79.28540039 C49.62710449 78.42052002 49.78936523 77.55563965 49.95654297 76.66455078 C51.21893743 70.12567753 52.55916163 63.65308512 54.30810547 57.22314453 C54.93792344 54.56891165 55.44473104 51.93537928 55.92138672 49.25048828 C57.10630931 42.60318435 58.52593032 36.01266603 59.95654297 29.41455078 C60.20855469 28.24601562 60.46056641 27.07748047 60.72021484 25.87353516 C61.22691192 23.52406763 61.73519757 21.1749421 62.24511719 18.82617188 C62.78733644 16.30459577 63.32091981 13.78239773 63.84375 11.25683594 C64.10913574 9.98501465 64.37452148 8.71319336 64.64794922 7.40283203 C64.88715088 6.24307861 65.12635254 5.0833252 65.37280273 3.88842773 C66.01904297 1.22705078 66.01904297 1.22705078 67.01904297 0.22705078 C69.16463124 0.13929473 71.31308718 0.12009859 73.46044922 0.12939453 C74.765625 0.13261719 76.07080078 0.13583984 77.41552734 0.13916016 C78.80419987 0.14751677 80.19287174 0.15598173 81.58154297 0.16455078 C82.97411953 0.16956412 84.36669778 0.17412732 85.75927734 0.17822266 C89.17924167 0.19005644 92.59912141 0.20654198 96.01904297 0.22705078 C96.26850552 7.06648232 95.41630413 12.91775148 93.76904297 19.53955078 C93.30584538 21.48172148 92.84495736 23.42444428 92.38623047 25.36767578 C92.03963379 26.83043945 92.03963379 26.83043945 91.68603516 28.32275391 C90.65938062 32.79313544 89.7709688 37.28779649 88.89404297 41.78955078 C87.65728544 48.09416061 86.33289891 54.36042646 84.85498047 60.61376953 C83.75923541 65.35005076 82.73380428 70.10051629 81.70654297 74.85205078 C80.81176885 78.97728113 79.91566583 83.10222188 79.01904297 87.22705078 C78.75623535 88.43683594 78.49342773 89.64662109 78.22265625 90.89306641 C77.408813 94.63028856 76.5895427 98.36628502 75.76904297 102.10205078 C75.51082764 103.29137207 75.2526123 104.48069336 74.98657227 105.70605469 C74.74463135 106.80353027 74.50269043 107.90100586 74.25341797 109.03173828 C74.03911133 110.01126465 73.82480469 110.99079102 73.60400391 112 C73.01904297 114.22705078 73.01904297 114.22705078 72.01904297 115.22705078 C70.00627027 115.33695497 67.98961222 115.376175 65.97387695 115.38818359 C64.67840439 115.39779114 63.38293182 115.40739868 62.04820251 115.41729736 C60.6205157 115.42214748 59.19282685 115.42642578 57.76513672 115.43017578 C56.30599465 115.4359277 54.8468526 115.44168543 53.38771057 115.44744873 C50.32007494 115.45797387 47.25246561 115.46380527 44.18481445 115.46728516 C40.26981435 115.47274527 36.3551664 115.49671292 32.44027615 115.52525711 C29.42121911 115.54397065 26.40224496 115.5490939 23.38313484 115.55062103 C21.94115353 115.55363313 20.49917317 115.56161252 19.05724907 115.57480621 C11.35966994 115.64015784 5.01501206 115.58814282 -1.98095703 112.22705078 C-3.03283203 111.79392578 -4.08470703 111.36080078 -5.16845703 110.91455078 C-11.57100957 107.07301926 -15.27705887 100.38329161 -17.57861328 93.41845703 C-18.14052806 90.35793089 -18.15213515 87.40050202 -18.16845703 84.28955078 C-18.18263672 83.08427734 -18.19681641 81.87900391 -18.21142578 80.63720703 C-17.88994605 69.82391486 -15.21397651 59.08006598 -12.98095703 48.53955078 C-12.20986747 44.86542355 -11.43955713 41.19113595 -10.67041016 37.51660156 C-10.25073677 35.51423642 -9.82829542 33.51244538 -9.40087891 31.51171875 C-7.8956882 24.30196974 -6.99392918 17.04503612 -6.12548828 9.73486328 C-6.00560547 8.79384766 -5.88572266 7.85283203 -5.76220703 6.88330078 C-5.65972656 6.03574219 -5.55724609 5.18818359 -5.45166016 4.31494141 C-4.66075838 0.80675054 -3.50923295 0.26728801 0 0 Z " fill="#FDFCFD" transform="translate(308.98095703125,243.77294921875)"/>
<path d="M0 0 C0.33 0 0.66 0 1 0 C1 14.19 1 28.38 1 43 C-12.86 43 -26.72 43 -41 43 C-37 41 -37 41 -33.375 39.8125 C-27.42906077 37.63715638 -21.74198397 33.82546358 -17.33203125 29.28125 C-16 28 -16 28 -14 28 C-13.7525 27.443125 -13.505 26.88625 -13.25 26.3125 C-12 24 -12 24 -10.1171875 21.72265625 C-5.2149769 15.41852195 -1.76820378 7.78009664 0 0 Z " fill="#020002" transform="translate(459,417)"/>
<path d="M0 0 C1.43597495 2.8719499 2.37746177 5.07014131 3.25 8.0625 C7.97747655 22.53144339 16.90256694 32.79908352 30.16015625 40.20703125 C33.33875069 41.62517338 36.56472632 42.47950399 40 43 C40 43.33 40 43.66 40 44 C26.8 44 13.6 44 0 44 C0 29.48 0 14.96 0 0 Z " fill="#020002" transform="translate(0,416)"/>
<path d="M0 0 C14.19 0 28.38 0 43 0 C43 12.21 43 24.42 43 37 C41.35295661 34.52943492 40.38597095 32.58539272 39.3125 29.875 C34.03918854 17.95692977 24.20887946 9.46632889 12.5390625 3.96484375 C8.45934222 2.41455004 4.31031703 1.61444945 0 1 C0 0.67 0 0.34 0 0 Z " fill="#010001" transform="translate(417,0)"/>
<path d="M0 0 C13.53 0 27.06 0 41 0 C41 0.33 41 0.66 41 1 C40.24976563 1.14695313 39.49953125 1.29390625 38.7265625 1.4453125 C25.58213642 4.32582905 14.85967451 11.01630029 7.1875 22.1875 C3.75276367 27.83364191 2.18407136 33.53835343 1 40 C0.67 40 0.34 40 0 40 C0 26.8 0 13.6 0 0 Z " fill="#020002" transform="translate(0,0)"/>
</svg>
