<svg role="img" viewBox="0 0 24 24" xmlns="http://www.w3.org/2000/svg" id="Testrail--Streamline-Simple-Icons" height="24" width="24">
  <desc>
    Testrail Streamline Icon: https://streamlinehq.com
  </desc>
  <title>TestRail</title>
  <path d="M7.27 23.896 4.5 21.124a0.352 0.352 0 0 1 0 -0.5l2.772 -2.77a0.352 0.352 0 0 1 0.5 0l2.772 2.772a0.352 0.352 0 0 1 0 0.5l-2.772 2.77a0.352 0.352 0 0 1 -0.5 0H7.27zm4.48 -4.48 -2.772 -2.772a0.352 0.352 0 0 1 0 -0.498l2.772 -2.772a0.352 0.352 0 0 1 0.5 0l2.77 2.772a0.352 0.352 0 0 1 0 0.5l-2.77 2.77a0.352 0.352 0 0 1 -0.499 0zm4.48 -4.48 -2.77 -2.772a0.352 0.352 0 0 1 0 -0.498l2.771 -2.772a0.352 0.352 0 0 1 0.5 0l2.77 2.772a0.352 0.352 0 0 1 0 0.498l-2.772 2.772a0.352 0.352 0 0 1 -0.5 0h0.002zm-8.876 0.084 -2.772 -2.77a0.352 0.352 0 0 1 0 -0.499l2.772 -2.773a0.352 0.352 0 0 1 0.5 0l2.772 2.772a0.352 0.352 0 0 1 0 0.498l-2.772 2.774a0.352 0.352 0 0 1 -0.5 0v-0.002zm4.48 -4.48L9.062 7.77a0.352 0.352 0 0 1 0 -0.5l2.772 -2.772a0.352 0.352 0 0 1 0.5 0l2.77 2.772a0.352 0.352 0 0 1 0 0.498l-2.77 2.772a0.352 0.352 0 0 1 -0.499 0v-0.002zM7.44 6.15 4.666 3.37a0.352 0.352 0 0 1 0 -0.5L7.44 0.104a0.352 0.352 0 0 1 0.5 0l2.772 2.772a0.352 0.352 0 0 1 0 0.5L7.938 6.142a0.352 0.352 0 0 1 -0.5 0l0.002 0.006v0.001z" fill="#65c179" stroke-width="1"></path>
</svg>