<?xml version="1.0" encoding="iso-8859-1"?>
<!-- Uploaded to: SVG Repo, www.svgrepo.com, Generator: SVG Repo Mixer Tools -->
<svg height="800px" width="800px" version="1.1" id="Layer_1" xmlns="http://www.w3.org/2000/svg" xmlns:xlink="http://www.w3.org/1999/xlink" 
	 viewBox="0 0 508 508" xml:space="preserve">
<circle style="fill:#FD8469;" cx="254" cy="254" r="254"/>
<path style="fill:#324A5E;" d="M405.6,163.2c-26.8,15.2-60,29.6-96.8,41.6c-36.8,12-72,19.2-102.8,22.8c2,16.4,5.6,33.6,11.2,50.8
	c29.2,90,99.6,148,157.2,129.6c57.6-18.8,81.2-106.8,52-196.8C420.8,194,413.6,178,405.6,163.2z M236,267.6
	c26-14.4,58.8-5.2,73.6,20.8l0,0C283.2,303.2,250.4,293.6,236,267.6z M360.8,366c-33.2,10.8-68.8-5.6-82.8-36.4
	c19.6,11.2,46.4,14,73.2,5.6c26.4-8.4,46.4-26.4,56-47.2C413.6,321.6,394,355.2,360.8,366z M357.2,273.2L357.2,273.2
	c-3.6-29.6,17.6-56.4,47.2-60C408,242.8,386.8,269.6,357.2,273.2z"/>
<path style="fill:#FFFFFF;" d="M322.4,155.2c-34-2-73.6-8-114.8-18.8s-78.4-24.8-109.2-40c-8,16.4-14.8,34.4-20,54
	C52,251.6,83.2,347.6,148,364.4c64.8,16.8,138.8-51.2,165.2-152.4C318.4,192.4,321.6,173.6,322.4,155.2z M102.4,151.6
	c32.8,2,58,30.4,56,63.2l0,0C125.6,212.8,100.4,184.4,102.4,151.6z M160.4,317.2c-37.2-9.6-60.8-45.6-55.6-83.2
	c11.6,22.4,35.2,40.8,64.8,48.4s59.2,2.8,80.4-10.8C236,307.2,197.6,327.2,160.4,317.2z M212.4,228.8L212.4,228.8
	c14.4-29.6,50-42,79.6-27.6C277.6,230.8,242,243.2,212.4,228.8z"/>
</svg>