<svg xmlns="http://www.w3.org/2000/svg" fill="none" viewBox="0 0 24 24" id="Xray-For-Jira--Streamline-Svg-Logos" height="24" width="24">
  <desc>
    Xray For Jira Streamline Icon: https://streamlinehq.com
  </desc>
  <path fill="#31b34b" d="m4.75235 12.005625 -2.2495 0.562375 -1.126385 4.2138L4.75235 12.005625Z" opacity=".5" stroke-width="0.25"></path>
  <path fill="#31b34b" d="M4.752275 12.005725 0.25 13.1402V10.313725h3.3759l1.134475 1.690375 -0.0081 0.001625Z" opacity=".8" stroke-width="0.25"></path>
  <path fill="#31b34b" d="M0.25 10.313775v2.82L3.6259 7.21825 0.25 10.313775Z" stroke-width="0.25"></path>
  <path fill="#000000" d="m7.275575 9.744875 1.034 1.4813 1.034 -1.4813h1.02105L8.859 11.902l1.645 2.35325h-1.0405l-1.14905 -1.610975 -1.1345 1.610975h-1.01455l1.6207 -2.312725 -1.516975 -2.19765h1.00645ZM13.969025 14.25525l-0.7763 -1.328975c-0.053975 0.00325 -0.1081 0.00325 -0.162075 0h-1.008075v1.328975h-0.86545V9.744875h1.873525c1.162025 0 1.8249 0.559125 1.8249 1.552625 0 0.70985 -0.314425 1.217125 -0.893 1.458625l0.988625 1.499125h-0.98215Zm-1.944825 -2.0923h1.012925c0.648275 0 1.0016 -0.275525 1.0016 -0.842775 0 -0.567225 -0.3598 -0.824925 -1.0016 -0.824925h-1.01455v1.6693l0.001625 -0.0016Zm6.836075 1.134475h-2.2009l-0.3987 0.957825h-0.88975l1.97725 -4.510375h0.891375l1.948075 4.510375h-0.925425l-0.401925 -0.957825Zm-0.307925 -0.742275 -0.784425 -1.9027 -0.81035 1.897825 1.594775 0.004875Zm3.5655 0.213925v1.486175h-0.860575v-1.444025l-1.67905 -3.06635h0.87355l1.22525 2.11985 1.207425 -2.11985h0.86545l-1.63205 3.0242Z" stroke-width="0.25"></path>
</svg>