<?xml version="1.0" encoding="UTF-8"?>
<svg version="1.1" xmlns="http://www.w3.org/2000/svg" width="200" height="200">
<path d="M0 0 C66 0 132 0 200 0 C200 66 200 132 200 200 C134 200 68 200 0 200 C0 134 0 68 0 0 Z " fill="#FEFEFE" transform="translate(0,0)"/>
<path d="M0 0 C0 3.75951447 -1.15710675 5.36464768 -3.04296875 8.609375 C-3.69910156 9.74665039 -4.35523438 10.88392578 -5.03125 12.05566406 C-5.74994705 13.28714028 -6.46869819 14.51858493 -7.1875 15.75 C-7.91348794 17.00446206 -8.6387426 18.25934876 -9.36328125 19.51464844 C-10.47296836 21.43702385 -11.58311814 23.35911439 -12.69564819 25.27984619 C-16.34275464 31.57761128 -19.92698819 37.90988848 -23.5 44.25 C-24.0571167 45.23709961 -24.6142334 46.22419922 -25.18823242 47.24121094 C-26.45949896 49.49375978 -27.73011157 51.74667406 -29 54 C-28.11328613 53.95697754 -27.22657227 53.91395508 -26.31298828 53.86962891 C0.57010328 52.84200388 0.57010328 52.84200388 5.93359375 57.65625 C8.17977435 60.48925933 9.64604002 63.63299475 11.04003906 66.95361328 C12.76631717 70.63358864 15.30238264 73.7874013 17.6875 77.0625 C22.01009924 83.02325949 22.01009924 83.02325949 21.97265625 86.64453125 C20.86029335 89.33832575 19.53795848 91.31868381 17.75 93.625 C13.94820714 98.6737267 10.35624016 103.82960346 6.8125 109.0625 C0.86225485 117.8138814 -5.29208059 126.4027542 -11.51708984 134.95996094 C-13.68747091 137.94575353 -15.84909557 140.93764676 -18 143.9375 C-18.38833008 144.47906738 -18.77666016 145.02063477 -19.17675781 145.57861328 C-23.42863156 151.54539793 -27.53368158 157.61415289 -31.62304688 163.69311523 C-32.14833984 164.46856689 -32.67363281 165.24401855 -33.21484375 166.04296875 C-33.68011475 166.73414795 -34.14538574 167.42532715 -34.62475586 168.13745117 C-35.95671024 169.94137093 -37.37237518 171.46228264 -39 173 C-37.78601621 165.58398724 -36.11375732 158.45663157 -34 151.25 C-30.63643292 139.53328277 -27.57468415 127.74854556 -24.5625 115.9375 C-24.33554443 115.04800659 -24.10858887 114.15851318 -23.87475586 113.24206543 C-22.5794099 108.16232798 -21.288034 103.08159617 -20 98 C-33.45202677 100.49354643 -46.71417104 103.74989988 -60 107 C-60.22914415 99.75981849 -60.3861943 92.52057884 -60.49438477 85.27758789 C-60.53950601 82.8166205 -60.60082158 80.35589252 -60.67895508 77.89575195 C-60.78877223 74.34786855 -60.83930924 70.80318536 -60.87890625 67.25390625 C-60.92535782 66.1629213 -60.97180939 65.07193634 -61.01966858 63.94789124 C-61.02377355 57.66524951 -60.16316829 54.47117549 -55.67553711 49.93725586 C-54.14265573 48.59498982 -52.58529465 47.27993919 -51 46 C-49.76823037 44.9196272 -48.5385388 43.83687196 -47.3125 42.75 C-46.34763672 41.92242187 -46.34763672 41.92242187 -45.36328125 41.078125 C-41.59148276 37.76143608 -37.93794129 34.31755693 -34.2746582 30.88183594 C-31.2529836 28.05706783 -28.1984103 25.28547102 -25.07421875 22.57421875 C-20.16306672 18.30226221 -15.4565345 13.82221854 -10.73632812 9.34179688 C-7.26639914 6.06556942 -3.79187856 2.90833404 0 0 Z " fill="#52C170" transform="translate(119,14)"/>
<path d="M0 0 C0 3.75951447 -1.15710675 5.36464768 -3.04296875 8.609375 C-4.02620117 10.31359619 -4.02620117 10.31359619 -5.02929688 12.05224609 C-5.74865794 13.28485406 -6.46805992 14.51743815 -7.1875 15.75 C-7.91935176 17.01471343 -8.65046483 18.2798546 -9.38085938 19.54541016 C-10.49676053 21.47868703 -11.61313457 23.41167299 -12.73190308 25.34329224 C-16.19846406 31.32921517 -19.60561376 37.3478798 -23 43.375 C-24.05321382 45.23968026 -25.10659249 47.10426743 -26.16015625 48.96875 C-27.90043551 52.05024149 -29.63721592 55.13365352 -31.37109375 58.21875 C-34.62429094 63.98523948 -37.94119867 69.62934449 -41.7734375 75.03515625 C-43.09369364 77.00613937 -43.09369364 77.00613937 -43.9140625 79.43359375 C-45.18101313 82.42779002 -46.96399569 84.47427495 -49 87 C-50.05113767 88.95248823 -51.05084924 90.93345071 -52 92.9375 C-54.08110223 97.21034534 -56.14765375 101.19687167 -59 105 C-59.33 105 -59.66 105 -60 105 C-60.22922407 98.04467529 -60.38622541 91.09033223 -60.49438477 84.13208008 C-60.53949451 81.76810309 -60.60080171 79.40437511 -60.67895508 77.04125977 C-60.78882726 73.63234963 -60.83931947 70.22677098 -60.87890625 66.81640625 C-60.92535782 65.76916885 -60.97180939 64.72193146 -61.01966858 63.64295959 C-61.02386053 57.47412214 -60.07495892 54.40850144 -55.67553711 49.96459961 C-54.14206015 48.61409629 -52.5846747 47.29004531 -51 46 C-49.7687484 44.91903686 -48.53916047 43.83617029 -47.3125 42.75 C-46.34763672 41.92242187 -46.34763672 41.92242187 -45.36328125 41.078125 C-41.59148276 37.76143608 -37.93794129 34.31755693 -34.2746582 30.88183594 C-31.2529836 28.05706783 -28.1984103 25.28547102 -25.07421875 22.57421875 C-20.16306672 18.30226221 -15.4565345 13.82221854 -10.73632812 9.34179688 C-7.26639914 6.06556942 -3.79187856 2.90833404 0 0 Z " fill="#26B24C" transform="translate(119,14)"/>
<path d="M0 0 C-0.52851563 0.63808594 -1.05703125 1.27617188 -1.6015625 1.93359375 C-4.68230376 5.87232647 -7.52177173 9.95724393 -10.375 14.0625 C-10.98786865 14.94083496 -11.6007373 15.81916992 -12.23217773 16.72412109 C-14.15629266 19.48169982 -16.07834197 22.24070873 -18 25 C-25.30063291 35.47927373 -32.63727097 45.9231495 -40.15405273 56.2487793 C-44.83308662 62.70442534 -49.33240454 69.27690037 -53.77563477 75.89672852 C-54.54025024 77.02872681 -54.54025024 77.02872681 -55.3203125 78.18359375 C-55.76648926 78.84931396 -56.21266602 79.51503418 -56.67236328 80.20092773 C-57.98628871 81.98141992 -59.3952172 83.48077817 -61 85 C-59.78601621 77.58398724 -58.11375732 70.45663157 -56 63.25 C-52.63643292 51.53328277 -49.57468415 39.74854556 -46.5625 27.9375 C-46.33554443 27.04800659 -46.10858887 26.15851318 -45.87475586 25.24206543 C-44.5794099 20.16232798 -43.288034 15.08159617 -42 10 C-42.99 9.67 -43.98 9.34 -45 9 C-33.58493369 6.09899766 -22.16685714 3.19994175 -10.6875 0.5625 C-9.94838379 0.38686523 -9.20926758 0.21123047 -8.44775391 0.03027344 C-5.118844 -0.71894817 -3.30156883 -1.10052294 0 0 Z " fill="#93D8A5" transform="translate(141,102)"/>
<path d="M0 0 C0 3.65461432 -1.03099572 5.16932909 -2.84375 8.32421875 C-3.43027344 9.35224609 -4.01679687 10.38027344 -4.62109375 11.43945312 C-5.24113281 12.51130859 -5.86117187 13.58316406 -6.5 14.6875 C-7.43005859 16.31268555 -7.43005859 16.31268555 -8.37890625 17.97070312 C-9.91357644 20.65047338 -11.45413448 23.32667732 -13 26 C-13.33 26 -13.66 26 -14 26 C-14.17942163 22.05272412 -14.09350689 19.4019487 -12 16 C-15.11785113 16.64644661 -15.11785113 16.64644661 -16 19 C-18.4375 20.6875 -18.4375 20.6875 -21 22 C-21.66 21.67 -22.32 21.34 -23 21 C-18.20653326 16.07171701 -13.2104294 11.48156026 -8 7 C-6.49888785 5.68877212 -4.99885314 4.37630954 -3.5 3.0625 C-2.33333333 2.04166667 -1.16666667 1.02083333 0 0 Z " fill="#37AE59" transform="translate(119,14)"/>
<path d="M0 0 C1.98 0.495 1.98 0.495 4 1 C3.27087654 1.58712517 3.27087654 1.58712517 2.52702332 2.18611145 C0.52285936 4.56677585 0.60574413 5.9347256 0.56762695 9.0222168 C0.54783279 10.04304855 0.52803864 11.06388031 0.50764465 12.11564636 C0.50125473 13.21572525 0.49486481 14.31580414 0.48828125 15.44921875 C0.47033005 16.5769722 0.45237885 17.70472565 0.43388367 18.86665344 C0.37964147 22.4735641 0.34583965 26.08034138 0.3125 29.6875 C0.27933929 32.13087799 0.24485081 34.57423835 0.20898438 37.01757812 C0.12390701 43.01159916 0.05561608 49.00563716 0 55 C-0.33 55 -0.66 55 -1 55 C-1.0252899 47.48861406 -1.04284141 39.97723903 -1.05493164 32.46582031 C-1.05997017 29.90884999 -1.06680107 27.35188257 -1.07543945 24.79492188 C-1.08752602 21.12629483 -1.09323301 17.45770577 -1.09765625 13.7890625 C-1.10539818 12.0655809 -1.10539818 12.0655809 -1.11329651 10.30728149 C-1.11337204 9.2463327 -1.11344757 8.18538391 -1.11352539 7.09228516 C-1.115746 6.15518707 -1.11796661 5.21808899 -1.12025452 4.25259399 C-1 2 -1 2 0 0 Z " fill="#DDFEEB" transform="translate(59,65)"/>
<path d="M0 0 C0.33 0.99 0.66 1.98 1 3 C0.01 3.33 -0.98 3.66 -2 4 C-2 20.17 -2 36.34 -2 53 C-2.33 53 -2.66 53 -3 53 C-3.07595253 45.93423331 -3.12855861 38.86857156 -3.16479492 31.80249023 C-3.17989816 29.39782782 -3.20038208 26.99319302 -3.22631836 24.58862305 C-3.26263351 21.13583569 -3.279711 17.68341196 -3.29296875 14.23046875 C-3.30845261 13.15226364 -3.32393646 12.07405853 -3.33988953 10.96318054 C-3.34011612 9.96236954 -3.34034271 8.96155853 -3.34057617 7.93041992 C-3.34723801 7.04883713 -3.35389984 6.16725433 -3.36076355 5.25895691 C-2.92949624 2.55853368 -2.09470587 1.68834041 0 0 Z " fill="#44A05F" transform="translate(62,66)"/>
<path d="M0 0 C0 3.79198146 -0.69972066 4.98088336 -3 8 C-4.99832799 9.3894305 -7.03234952 10.60826845 -9.16015625 11.7890625 C-11.29832944 13.02493225 -11.29832944 13.02493225 -13 16 C-15.625 16.6875 -15.625 16.6875 -18 17 C-14.57179679 12.28622058 -10.43087181 8.72634622 -6 5 C-5.38898438 4.48566406 -4.77796875 3.97132812 -4.1484375 3.44140625 C-2.77032686 2.2886265 -1.38591761 1.14338203 0 0 Z " fill="#3EAF5D" transform="translate(95,36)"/>
<path d="M0 0 C2.72811344 5.09247842 2.72811344 5.09247842 3 8 C1.78515625 10.359375 1.78515625 10.359375 0.0625 12.75 C-0.50339844 13.54921875 -1.06929688 14.3484375 -1.65234375 15.171875 C-2.09707031 15.77515625 -2.54179688 16.3784375 -3 17 C-4.29065057 13.1280483 -3.22324098 10.55767399 -2.0625 6.8125 C-1.76956055 5.83120117 -1.76956055 5.83120117 -1.47070312 4.83007812 C-0.98817437 3.21772593 -0.49509795 1.60853711 0 0 Z " fill="#9DD5AF" transform="translate(84,170)"/>
<path d="M0 0 C0.66 0.33 1.32 0.66 2 1 C0.24933204 4.88609811 -2.18324006 8.27812258 -4.625 11.75 C-5.04523438 12.35199219 -5.46546875 12.95398438 -5.8984375 13.57421875 C-6.92993137 15.05113043 -7.96464579 16.52579194 -9 18 C-9.33 16.68 -9.66 15.36 -10 14 C-8.68 13.34 -7.36 12.68 -6 12 C-6 10.68 -6 9.36 -6 8 C-5.34 8 -4.68 8 -4 8 C-3.896875 7.4225 -3.79375 6.845 -3.6875 6.25 C-2.90207202 3.67950842 -1.69495803 2.06342716 0 0 Z " fill="#9FD4B0" transform="translate(98,157)"/>
<path d="M0 0 C0.66 0.33 1.32 0.66 2 1 C-2.95 7.93 -2.95 7.93 -8 15 C-8.66 14.67 -9.32 14.34 -10 14 C-8.33612101 10.43454502 -6.89201827 7.6606568 -4 5 C-2.65263027 3.34466005 -1.31665664 1.67987227 0 0 Z " fill="#A1D3AE" transform="translate(131,112)"/>
<path d="M0 0 C0.74609375 1.609375 0.74609375 1.609375 1 4 C-0.65234375 7.015625 -0.65234375 7.015625 -2.9375 10.25 C-3.68902344 11.32765625 -4.44054687 12.4053125 -5.21484375 13.515625 C-5.80394531 14.33546875 -6.39304687 15.1553125 -7 16 C-7.33 15.34 -7.66 14.68 -8 14 C-6.21293716 10.54912004 -4.74146784 7.74146784 -2 5 C-1.29289322 3.35008418 -0.62056011 1.68437744 0 0 Z " fill="#43C165" transform="translate(76,90)"/>
<path d="M0 0 C2.32510245 2.84179188 4.57700599 5.72826599 6.75 8.6875 C7.17796875 9.26886719 7.6059375 9.85023437 8.046875 10.44921875 C9 12 9 12 9 14 C8.34 14 7.68 14 7 14 C6.71125 13.360625 6.4225 12.72125 6.125 12.0625 C5.17176549 9.84793921 5.17176549 9.84793921 3 9 C2.67 8.01 2.34 7.02 2 6 C1.34 5.67 0.68 5.34 0 5 C0 3.35 0 1.7 0 0 Z " fill="#6CBF82" transform="translate(128,80)"/>
<path d="M0 0 C0 3.44360632 -0.79591532 4.74795392 -2.5 7.6875 C-2.9640625 8.49574219 -3.428125 9.30398437 -3.90625 10.13671875 C-4.44765625 11.05904297 -4.44765625 11.05904297 -5 12 C-5.33 11.01 -5.66 10.02 -6 9 C-5.67 8.34 -5.34 7.68 -5 7 C-5.66 6.67 -6.32 6.34 -7 6 C-4.69 4.02 -2.38 2.04 0 0 Z " fill="#5AB070" transform="translate(119,14)"/>
<path d="M0 0 C-3.22260711 2.14840474 -5.28393576 2.60723087 -9.0625 3.25 C-10.12597656 3.44078125 -11.18945312 3.6315625 -12.28515625 3.828125 C-13.62900391 3.91320312 -13.62900391 3.91320312 -15 4 C-15.66 3.34 -16.32 2.68 -17 2 C-14.91952703 1.4678559 -12.83547707 0.94968214 -10.75 0.4375 C-9.58984375 0.14746094 -8.4296875 -0.14257812 -7.234375 -0.44140625 C-4.27909017 -0.95179964 -2.75565899 -1.02996165 0 0 Z " fill="#83D89B" transform="translate(116,108)"/>
<path d="M0 0 C1 3 1 3 0 6 C-0.99 6.495 -0.99 6.495 -2 7 C-2.33 7.99 -2.66 8.98 -3 10 C-4.32 10 -5.64 10 -7 10 C-5.87327121 6.61981362 -4.51913637 5.4427989 -2 3 C-1.34 2.01 -0.68 1.02 0 0 Z " fill="#EEFCF1" transform="translate(86,178)"/>
<path d="M0 0 C0.66 0 1.32 0 2 0 C0.68 5.28 -0.64 10.56 -2 16 C-2.33 16 -2.66 16 -3 16 C-2.88544319 14.08268082 -2.75793742 12.1661325 -2.625 10.25 C-2.55539063 9.18265625 -2.48578125 8.1153125 -2.4140625 7.015625 C-2.0271777 4.19793568 -1.44313834 2.4169634 0 0 Z " fill="#ECFDEF" transform="translate(83,168)"/>
<path d="M0 0 C0.66 0.33 1.32 0.66 2 1 C0.85865673 3.00256574 -0.28818633 5.00199797 -1.4375 7 C-2.39462891 8.670625 -2.39462891 8.670625 -3.37109375 10.375 C-3.90863281 11.24125 -4.44617188 12.1075 -5 13 C-5.33 13 -5.66 13 -6 13 C-6 11.35 -6 9.7 -6 8 C-5.34 8 -4.68 8 -4 8 C-3.71125 7.05125 -3.4225 6.1025 -3.125 5.125 C-2 2 -2 2 0 0 Z " fill="#41AE62" transform="translate(97,51)"/>
<path d="M0 0 C0.33 0.99 0.66 1.98 1 3 C-0.21484375 5.04296875 -0.21484375 5.04296875 -1.9375 7.1875 C-2.50339844 7.90292969 -3.06929688 8.61835938 -3.65234375 9.35546875 C-4.09707031 9.89816406 -4.54179688 10.44085938 -5 11 C-5.66 10.01 -6.32 9.02 -7 8 C-6.34 8 -5.68 8 -5 8 C-4.34 6.35 -3.68 4.7 -3 3 C-2.34 3 -1.68 3 -1 3 C-0.67 2.01 -0.34 1.02 0 0 Z " fill="#9DD5B0" transform="translate(106,147)"/>
<path d="M0 0 C0.66 0.66 1.32 1.32 2 2 C0.02 4.97 -1.96 7.94 -4 11 C-5 8 -5 8 -3.5625 4.8125 C-3.046875 3.884375 -2.53125 2.95625 -2 2 C-1.34 2 -0.68 2 0 2 C0 1.34 0 0.68 0 0 Z " fill="#A2D6B0" transform="translate(118,129)"/>
<path d="M0 0 C1.32 0 2.64 0 4 0 C4.08086147 1.79093191 4.13912702 3.58289628 4.1875 5.375 C4.22230469 6.37273437 4.25710937 7.37046875 4.29296875 8.3984375 C4.19628906 9.25695312 4.09960938 10.11546875 4 11 C3.01 11.66 2.02 12.32 1 13 C1.55312735 8.97007218 2.1558062 4.97977076 3 1 C2.01 0.67 1.02 0.34 0 0 Z " fill="#ADDDBB" transform="translate(96,111)"/>
<path d="M0 0 C0.99 0.66 1.98 1.32 3 2 C2.67 3.65 2.34 5.3 2 7 C1.01 7.33 0.02 7.66 -1 8 C-1 7.01 -1 6.02 -1 5 C-1.66 4.34 -2.32 3.68 -3 3 C-2.01 2.01 -1.02 1.02 0 0 Z " fill="#E4F7EC" transform="translate(119,11)"/>
<path d="M0 0 C0.66 1.32 1.32 2.64 2 4 C1.54625 4.4125 1.0925 4.825 0.625 5.25 C-1.05950374 7.06408095 -1.99265971 8.75285627 -3 11 C-3.66 11 -4.32 11 -5 11 C-3.55049545 7.2089881 -1.84827434 3.6125362 0 0 Z " fill="#DBF9E4" transform="translate(112,27)"/>
<path d="M0 0 C0.33 0.99 0.66 1.98 1 3 C-0.43359375 5.04296875 -0.43359375 5.04296875 -2.4375 7.1875 C-3.09621094 7.90292969 -3.75492187 8.61835938 -4.43359375 9.35546875 C-4.95050781 9.89816406 -5.46742187 10.44085938 -6 11 C-6 7.39426104 -5.18292538 6.58663434 -3 3.8125 C-2.443125 3.09707031 -1.88625 2.38164062 -1.3125 1.64453125 C-0.879375 1.10183594 -0.44625 0.55914062 0 0 Z " fill="#E7FAED" transform="translate(101,157)"/>
<path d="M0 0 C-1.32 0.33 -2.64 0.66 -4 1 C-4 2.32 -4 3.64 -4 5 C-5.65 5 -7.3 5 -9 5 C-8.67 4.34 -8.34 3.68 -8 3 C-8.66 2.34 -9.32 1.68 -10 1 C-6.59437148 0.22157062 -3.49234244 -0.09978121 0 0 Z " fill="#8BD89D" transform="translate(138,102)"/>
<path d="M0 0 C2 1.8125 2 1.8125 4 4 C4 4.99 4 5.98 4 7 C1.36 7.33 -1.28 7.66 -4 8 C-2.68 7.34 -1.36 6.68 0 6 C0 4.02 0 2.04 0 0 Z " fill="#6BC084" transform="translate(137,94)"/>
<path d="M0 0 C0.99 1.32 1.98 2.64 3 4 C1.68 6.31 0.36 8.62 -1 11 C-2.41687119 6.74938644 -1.19320039 4.28148375 0 0 Z " fill="#B1D7BC" transform="translate(82,176)"/>
<path d="M0 0 C-3.20380017 2.13586678 -4.01939967 2.23132175 -7.6875 2.125 C-8.89986328 2.09792969 -8.89986328 2.09792969 -10.13671875 2.0703125 C-11.05904297 2.03550781 -11.05904297 2.03550781 -12 2 C-7.66032699 -0.21504143 -4.80574417 -1.54470348 0 0 Z " fill="#DCF9E5" transform="translate(88,115)"/>
<path d="M0 0 C0.66 0 1.32 0 2 0 C0.90931332 3.77545388 0.0916909 6.47043472 -3 9 C-2.5020163 5.26512223 -2.12508244 3.18762365 0 0 Z " fill="#3CB05C" transform="translate(89,64)"/>
<path d="M0 0 C-2.64 1.98 -5.28 3.96 -8 6 C-8 4.68 -8 3.36 -8 2 C-3.82258065 -1.27419355 -3.82258065 -1.27419355 0 0 Z " fill="#DEFAE8" transform="translate(72,58)"/>
<path d="M0 0 C0.66 0.33 1.32 0.66 2 1 C-0.31 3.31 -2.62 5.62 -5 8 C-5.33 7.01 -5.66 6.02 -6 5 C-4.02 3.35 -2.04 1.7 0 0 Z " fill="#DEFCE5" transform="translate(112,18)"/>
<path d="M0 0 C0.66 0.66 1.32 1.32 2 2 C1.6730244 4.61580479 1.17960932 6.64078137 0 9 C-0.66 9 -1.32 9 -2 9 C-1.34 6.03 -0.68 3.06 0 0 Z " fill="#A7D5B5" transform="translate(87,158)"/>
</svg>
