<?xml version="1.0" encoding="UTF-8"?>
<svg version="1.1" xmlns="http://www.w3.org/2000/svg" width="400" height="400">
<path d="M0 0 C3.92738306 0.55472518 5.71196785 2.3434072 8.46481323 5.11077881 C9.35354126 5.996828 10.24226929 6.8828772 11.15792847 7.79577637 C12.1352063 8.78526658 13.11234393 9.77489528 14.08935547 10.76464844 C15.12387977 11.80165619 16.15907329 12.83799669 17.19488525 13.87371826 C19.42446034 16.10599982 21.64919173 18.34296218 23.87029648 20.58367157 C27.38501801 24.12941048 30.91007682 27.66474975 34.43655396 31.1987915 C40.01664478 36.79337927 45.58947286 42.39514005 51.15938008 47.99986482 C61.12413205 58.02645501 71.10096089 68.04102107 81.08065712 78.05273461 C84.58105488 81.56493657 88.07824382 85.08029386 91.57275748 88.59835005 C93.75232639 90.79179885 95.93392599 92.98322008 98.11597443 95.17420197 C99.12383173 96.18710579 100.1308062 97.200889 101.13680649 98.21563721 C105.92783996 103.04763994 110.68385857 107.74921333 116 112 C118.875 114.6875 118.875 114.6875 121 117 C121 117.66 121 118.32 121 119 C121.66 119 122.32 119 123 119 C123 119.66 123 120.32 123 121 C123.66 121 124.32 121 125 121 C125 120.34 125 119.68 125 119 C125.66 119 126.32 119 127 119 C127.3403125 118.1646875 127.3403125 118.1646875 127.6875 117.3125 C130.36310326 112.59834188 134.88093098 109.18290417 138.89453125 105.61035156 C148.10459788 97.2627623 156.73968203 88.30369916 165.480896 79.47200775 C168.73799331 76.18189679 172.00138411 72.89807556 175.26611328 69.61553955 C176.38952742 68.48586759 177.51294049 67.35619458 178.63635254 66.22652054 C179.19805649 65.66170046 179.75976044 65.09688039 180.33848572 64.51494455 C187.92023887 56.89032881 195.49709587 49.26093328 203.06005859 41.61767578 C208.18991222 36.43345801 213.32851337 31.25809012 218.47742748 26.09280038 C221.1948873 23.36596087 223.90755124 20.63469831 226.60946655 17.89244843 C229.14016231 15.32406033 231.68210888 12.76738717 234.23334694 10.21940804 C235.61500882 8.83333997 236.98415529 7.43483183 238.35295105 6.03605652 C239.58468803 4.81246178 239.58468803 4.81246178 240.84130859 3.56414795 C241.90748917 2.4891057 241.90748917 2.4891057 242.99520874 1.39234543 C245 -0 245 -0 247.25991821 0.27724075 C248.1212587 0.63500658 248.1212587 0.63500658 249 1 C249 1.66 249 2.32 249 3 C250.98 3.99 250.98 3.99 253 5 C253 5.66 253 6.32 253 7 C253.99 7.33 254.98 7.66 256 8 C256 8.66 256 9.32 256 10 C257.98 10.99 257.98 10.99 260 12 C260 12.66 260 13.32 260 14 C261.98 14.99 261.98 14.99 264 16 C264 16.66 264 17.32 264 18 C264.99 18.33 265.98 18.66 267 19 C267 19.66 267 20.32 267 21 C268.98 21.99 268.98 21.99 271 23 C271 23.66 271 24.32 271 25 C271.99 25.33 272.98 25.66 274 26 C274 26.66 274 27.32 274 28 C275.98 28.99 275.98 28.99 278 30 C278 30.66 278 31.32 278 32 C278.598125 32.268125 279.19625 32.53625 279.8125 32.8125 C281.99847854 33.99917406 283.41332594 35.09599113 285 37 C285 37.66 285 38.32 285 39 C285.598125 39.268125 286.19625 39.53625 286.8125 39.8125 C288.99847854 40.99917406 290.41332594 42.09599113 292 44 C292 44.66 292 45.32 292 46 C293.32 46.66 294.64 47.32 296 48 C296 48.66 296 49.32 296 50 C296.99 50.33 297.98 50.66 299 51 C299 51.66 299 52.32 299 53 C300.32 53.66 301.64 54.32 303 55 C303 55.66 303 56.32 303 57 C303.598125 57.268125 304.19625 57.53625 304.8125 57.8125 C306.99847854 58.99917406 308.41332594 60.09599113 310 62 C310 62.66 310 63.32 310 64 C310.598125 64.268125 311.19625 64.53625 311.8125 64.8125 C313.99847854 65.99917406 315.41332594 67.09599113 317 69 C317 69.66 317 70.32 317 71 C318.32 71.66 319.64 72.32 321 73 C321 73.66 321 74.32 321 75 C321.99 75.33 322.98 75.66 324 76 C323.53823569 80.74244127 321.72848629 82.76665045 318.40000916 86.08100891 C317.91729555 86.56714021 317.43458195 87.05327152 316.93724066 87.55413407 C315.31899436 89.17896355 313.68687711 90.78909255 312.05444336 92.3996582 C310.89088997 93.56208321 309.72821685 94.72538991 308.56636047 95.88951111 C305.41012588 99.04689414 302.24170345 102.19178584 299.07097316 105.33460259 C295.75929891 108.62128503 292.45893611 111.91928573 289.15736389 115.21611023 C282.90383546 121.4572024 276.6401798 127.68802748 270.37283474 133.91524142 C263.23810703 141.00527181 256.11472349 148.10665302 248.99227703 155.2090174 C234.34078518 169.81869018 219.6750834 184.4140271 205 199 C206.5543333 202.72551891 208.83426722 205.06630595 211.68901062 207.8891449 C212.16920066 208.36681039 212.6493907 208.84447589 213.14413196 209.3366161 C214.75246256 210.93420125 216.36780885 212.52450064 217.9831543 214.11499023 C219.13823823 215.25968655 220.29283866 216.40487095 221.44699097 217.55050659 C223.93202671 220.01566888 226.41993547 222.47788219 228.90994835 224.93801689 C232.84455369 228.82651112 236.76940655 232.72474748 240.69233704 236.62501526 C251.84832879 247.71412046 263.01251528 258.79487992 274.19750977 269.85473633 C280.37559684 275.96386545 286.5429862 282.08358136 292.69857341 288.21538311 C296.59754633 292.09812532 300.50932844 295.96733488 304.43087232 299.8272723 C306.86373431 302.22819761 309.28397454 304.64153452 311.70072556 307.05866623 C312.82629293 308.17937634 313.95704288 309.29490818 315.09319878 310.40488243 C316.6402593 311.91775409 318.1678703 313.44789307 319.69194031 314.98387146 C320.5530627 315.83686545 321.41418509 316.68985945 322.30140209 317.56870174 C324 320 324 320 323.76925373 322.81350803 C323.38847313 323.89582156 323.38847313 323.89582156 323 325 C322.34 325 321.68 325 321 325 C320.34 326.32 319.68 327.64 319 329 C318.34 329 317.68 329 317 329 C316.731875 329.598125 316.46375 330.19625 316.1875 330.8125 C315.00082594 332.99847854 313.90400887 334.41332594 312 336 C311.34 336 310.68 336 310 336 C309.731875 336.598125 309.46375 337.19625 309.1875 337.8125 C308.00082594 339.99847854 306.90400887 341.41332594 305 343 C304.34 343 303.68 343 303 343 C302.34 344.32 301.68 345.64 301 347 C300.34 347 299.68 347 299 347 C298.67 347.99 298.34 348.98 298 350 C297.34 350 296.68 350 296 350 C295.34 351.32 294.68 352.64 294 354 C293.34 354 292.68 354 292 354 C291.731875 354.598125 291.46375 355.19625 291.1875 355.8125 C290.00082594 357.99847854 288.90400887 359.41332594 287 361 C286.34 361 285.68 361 285 361 C284.731875 361.598125 284.46375 362.19625 284.1875 362.8125 C283.00082594 364.99847854 281.90400887 366.41332594 280 368 C279.34 368 278.68 368 278 368 C277.34 369.32 276.68 370.64 276 372 C275.34 372 274.68 372 274 372 C273.67 372.99 273.34 373.98 273 375 C272.34 375 271.68 375 271 375 C270.34 376.32 269.68 377.64 269 379 C268.34 379 267.68 379 267 379 C266.67 379.99 266.34 380.98 266 382 C265.34 382 264.68 382 264 382 C263.34 383.32 262.68 384.64 262 386 C261.34 386 260.68 386 260 386 C259.34 387.32 258.68 388.64 258 390 C257.34 390 256.68 390 256 390 C255.67 390.99 255.34 391.98 255 393 C254.34 393 253.68 393 253 393 C252.34 394.32 251.68 395.64 251 397 C250.34 397 249.68 397 249 397 C248.67 397.99 248.34 398.98 248 400 C244.05160286 399.44781915 242.25607593 397.62454129 239.49049377 394.8445282 C238.59190643 393.94861969 237.69331909 393.05271118 236.76750183 392.12965393 C235.77919186 391.12913166 234.79102213 390.12847085 233.80297852 389.12768555 C232.75697957 388.07920321 231.71031148 387.03138807 230.6630249 385.98419189 C228.40889304 383.72735362 226.15960376 381.46583391 223.91394234 379.20056725 C220.36168555 375.61730178 216.79909912 372.04442771 213.23509216 368.47285461 C207.59714425 362.82041068 201.96645973 357.16079218 196.33869547 351.49821073 C186.26624331 341.36389968 176.18167951 331.24164777 166.09428734 321.12220985 C162.55514901 317.57125415 159.01921765 314.0171441 155.48594487 310.4603523 C153.28456236 308.24511129 151.08116583 306.03188124 148.87731934 303.8190918 C147.8577587 302.79447549 146.83907992 301.7689808 145.82136345 300.74253273 C144.42874996 299.33816742 143.0326967 297.93721562 141.63648987 296.53642273 C140.85723931 295.75235393 140.07798876 294.96828512 139.27512455 294.16045666 C136.95092058 291.95339422 134.5161427 289.98310808 132 288 C129.1875 285.375 129.1875 285.375 127 283 C127 282.34 127 281.68 127 281 C126.34 281 125.68 281 125 281 C125 280.34 125 279.68 125 279 C124.34 279 123.68 279 123 279 C123 279.66 123 280.32 123 281 C122.34 281 121.68 281 121 281 C120.6596875 281.8353125 120.6596875 281.8353125 120.3125 282.6875 C117.69013124 287.307864 113.39123334 290.54318806 109.45895386 294.03146362 C103.99968378 298.94151571 98.81465879 304.08569756 93.65673828 309.30908203 C92.66695746 310.30735648 91.67690294 311.30535962 90.68659973 312.30311584 C88.57649515 314.42977257 86.46782598 316.55783833 84.36017227 318.68692398 C81.02757166 322.05243414 77.68876564 325.41174237 74.34860229 328.76974487 C73.20073828 329.92386756 72.0528749 331.07799087 70.90501213 332.23211479 C70.33087885 332.8093642 69.75674556 333.38661361 69.1652143 333.98135543 C61.40370195 341.78577299 53.6469884 349.59487589 45.90429688 357.41796875 C40.65946112 362.71717058 35.40587621 368.00752299 30.1419791 373.28779304 C27.36189521 376.07726068 24.58660927 378.87116209 21.82205582 381.67602921 C19.23065284 384.30512933 16.62798865 386.9225149 14.01604271 389.53120232 C12.60096526 390.95068646 11.19840271 392.38261194 9.79618835 393.81480408 C8.95531174 394.65025253 8.11443512 395.48570099 7.24807739 396.34646606 C6.51994402 397.08050722 5.79181065 397.81454838 5.04161263 398.57083321 C3 400 3 400 0.73449516 399.72834587 C0.16211176 399.48799173 -0.41027164 399.2476376 -1 399 C-1 398.34 -1 397.68 -1 397 C-2.32 396.34 -3.64 395.68 -5 395 C-5 394.34 -5 393.68 -5 393 C-5.99 392.67 -6.98 392.34 -8 392 C-8 391.34 -8 390.68 -8 390 C-9.32 389.34 -10.64 388.68 -12 388 C-12 387.34 -12 386.68 -12 386 C-13.32 385.34 -14.64 384.68 -16 384 C-16 383.34 -16 382.68 -16 382 C-16.99 381.67 -17.98 381.34 -19 381 C-19 380.34 -19 379.68 -19 379 C-20.32 378.34 -21.64 377.68 -23 377 C-23 376.34 -23 375.68 -23 375 C-23.99 374.67 -24.98 374.34 -26 374 C-26 373.34 -26 372.68 -26 372 C-27.32 371.34 -28.64 370.68 -30 370 C-30 369.34 -30 368.68 -30 368 C-30.598125 367.731875 -31.19625 367.46375 -31.8125 367.1875 C-33.99847854 366.00082594 -35.41332594 364.90400887 -37 363 C-37 362.34 -37 361.68 -37 361 C-37.598125 360.731875 -38.19625 360.46375 -38.8125 360.1875 C-40.99847854 359.00082594 -42.41332594 357.90400887 -44 356 C-44 355.34 -44 354.68 -44 354 C-45.32 353.34 -46.64 352.68 -48 352 C-48 351.34 -48 350.68 -48 350 C-48.99 349.67 -49.98 349.34 -51 349 C-51 348.34 -51 347.68 -51 347 C-52.32 346.34 -53.64 345.68 -55 345 C-55 344.34 -55 343.68 -55 343 C-55.598125 342.731875 -56.19625 342.46375 -56.8125 342.1875 C-58.99847854 341.00082594 -60.41332594 339.90400887 -62 338 C-62 337.34 -62 336.68 -62 336 C-62.598125 335.731875 -63.19625 335.46375 -63.8125 335.1875 C-65.99847854 334.00082594 -67.41332594 332.90400887 -69 331 C-69 330.34 -69 329.68 -69 329 C-70.32 328.34 -71.64 327.68 -73 327 C-73 326.34 -73 325.68 -73 325 C-73.99 324.67 -74.98 324.34 -76 324 C-75.53823569 319.25755873 -73.72848629 317.23334955 -70.40000916 313.91899109 C-69.67593875 313.18979413 -69.67593875 313.18979413 -68.93724066 312.44586593 C-67.31899436 310.82103645 -65.68687711 309.21090745 -64.05444336 307.6003418 C-62.89088997 306.43791679 -61.72821685 305.27461009 -60.56636047 304.11048889 C-57.41012588 300.95310586 -54.24170345 297.80821416 -51.07097316 294.66539741 C-47.75929891 291.37871497 -44.45893611 288.08071427 -41.15736389 284.78388977 C-34.90383546 278.5427976 -28.6401798 272.31197252 -22.37283474 266.08475858 C-15.23810703 258.99472819 -8.11472349 251.89334698 -0.99227703 244.7909826 C13.65921482 230.18130982 28.3249166 215.5859729 43 201 C41.4456667 197.27448109 39.16573278 194.93369405 36.31098938 192.1108551 C35.59070432 191.39435686 35.59070432 191.39435686 34.85586804 190.6633839 C33.24753744 189.06579875 31.63219115 187.47549936 30.0168457 185.88500977 C28.86176177 184.74031345 27.70716134 183.59512905 26.55300903 182.44949341 C24.06797329 179.98433112 21.58006453 177.52211781 19.09005165 175.06198311 C15.15544631 171.17348888 11.23059345 167.27525252 7.30766296 163.37498474 C-3.84832879 152.28587954 -15.01251528 141.20512008 -26.19750977 130.14526367 C-32.37559684 124.03613455 -38.5429862 117.91641864 -44.69857341 111.78461689 C-48.59754633 107.90187468 -52.50932844 104.03266512 -56.43087232 100.1727277 C-58.86373431 97.77180239 -61.28397454 95.35846548 -63.70072556 92.94133377 C-64.82629293 91.82062366 -65.95704288 90.70509182 -67.09319878 89.59511757 C-68.6402593 88.08224591 -70.1678703 86.55210693 -71.69194031 85.01612854 C-72.98362389 83.73663755 -72.98362389 83.73663755 -74.30140209 82.43129826 C-76 80 -76 80 -75.76925373 77.18649197 C-75.5154 76.46494962 -75.26154627 75.74340727 -75 75 C-74.34 75 -73.68 75 -73 75 C-72.34 73.68 -71.68 72.36 -71 71 C-70.34 71 -69.68 71 -69 71 C-68.731875 70.401875 -68.46375 69.80375 -68.1875 69.1875 C-67.00082594 67.00152146 -65.90400887 65.58667406 -64 64 C-63.34 64 -62.68 64 -62 64 C-61.731875 63.401875 -61.46375 62.80375 -61.1875 62.1875 C-60.00082594 60.00152146 -58.90400887 58.58667406 -57 57 C-56.34 57 -55.68 57 -55 57 C-54.34 55.68 -53.68 54.36 -53 53 C-52.34 53 -51.68 53 -51 53 C-50.67 52.01 -50.34 51.02 -50 50 C-49.34 50 -48.68 50 -48 50 C-47.34 48.68 -46.68 47.36 -46 46 C-45.34 46 -44.68 46 -44 46 C-43.731875 45.401875 -43.46375 44.80375 -43.1875 44.1875 C-42.00082594 42.00152146 -40.90400887 40.58667406 -39 39 C-38.34 39 -37.68 39 -37 39 C-36.731875 38.401875 -36.46375 37.80375 -36.1875 37.1875 C-35.00082594 35.00152146 -33.90400887 33.58667406 -32 32 C-31.34 32 -30.68 32 -30 32 C-29.34 30.68 -28.68 29.36 -28 28 C-27.34 28 -26.68 28 -26 28 C-25.505 26.515 -25.505 26.515 -25 25 C-24.34 25 -23.68 25 -23 25 C-22.34 23.68 -21.68 22.36 -21 21 C-20.34 21 -19.68 21 -19 21 C-18.505 19.515 -18.505 19.515 -18 18 C-17.34 18 -16.68 18 -16 18 C-15.34 16.68 -14.68 15.36 -14 14 C-13.34 14 -12.68 14 -12 14 C-11.34 12.68 -10.68 11.36 -10 10 C-9.34 10 -8.68 10 -8 10 C-7.67 9.01 -7.34 8.02 -7 7 C-6.34 7 -5.68 7 -5 7 C-4.34 5.68 -3.68 4.36 -3 3 C-2.34 3 -1.68 3 -1 3 C-0.67 2.01 -0.34 1.02 0 0 Z " fill="#000000" transform="translate(76,0)"/>
<path d="M0 0 C3.28408284 1.43712344 5.45361919 3.20622189 7.97801208 5.73750305 C8.75880127 6.51554291 9.53959045 7.29358276 10.34403992 8.09519958 C11.61511345 9.37705894 11.61511345 9.37705894 12.91186523 10.68481445 C13.81149994 11.5841571 14.71113464 12.48349976 15.63803101 13.41009521 C18.10329338 15.8747838 20.56233907 18.34559173 23.02032351 20.81753564 C25.59688025 23.4066134 28.1791194 25.9900111 30.76075745 28.57402039 C35.65317278 33.47265332 40.54047038 38.37635935 45.4259482 43.28191012 C50.96792645 48.84617201 56.51551711 54.40482348 62.06362236 59.96297514 C71.55361866 69.47034624 81.03938005 78.98192338 90.52043152 88.49821472 C92.68000738 90.66575612 94.83983861 92.83304215 97 95 C97.53106543 95.5327762 98.06213085 96.06555241 98.60928917 96.61447334 C100.76082361 98.77004738 102.92501429 100.89680043 105.171875 102.953125 C115.04296814 112.04721755 124.56680332 121.45361193 134 131 C136.95170386 129.67195147 139.00588046 128.23365273 141.26806641 125.92724609 C141.88195221 125.30675385 142.49583801 124.6862616 143.12832642 124.04696655 C143.77949432 123.37920197 144.43066223 122.71143738 145.1015625 122.0234375 C145.77923676 121.33819 146.45691101 120.6529425 147.15512085 119.94692993 C149.31661346 117.76102388 151.4715406 115.56881874 153.625 113.375 C156.46569408 110.48132672 159.31278034 107.59417394 162.1640625 104.7109375 C162.81927887 104.03912445 163.47449524 103.3673114 164.14956665 102.67514038 C164.75714813 102.06095245 165.36472961 101.44676453 165.99072266 100.81396484 C166.52492828 100.26928558 167.05913391 99.72460632 167.60952759 99.16342163 C169 98 169 98 171 98 C171.99 96.02 171.99 96.02 173 94 C173.66 94 174.32 94 175 94 C175.33 93.01 175.66 92.02 176 91 C177.6396721 89.63360658 179.31110128 88.3050581 181 87 C182.68298546 85.34736702 184.34436692 83.67966438 186 82 C187.23724504 80.76103918 188.47543268 79.52301927 189.71430969 78.28569031 C190.41114365 77.58885635 191.1079776 76.8920224 191.82592773 76.17407227 C217.21728516 50.78271484 242.60864258 25.39135742 268 0 C271.41059403 1.60535287 273.61792484 3.40518901 276.25 6.125 C277.30960937 7.21167969 277.30960937 7.21167969 278.390625 8.3203125 C278.92171875 8.87460938 279.4528125 9.42890625 280 10 C274.35821271 16.88628446 268.04938389 23.08420134 261.75244141 29.36108398 C260.50997792 30.60326506 259.26773527 31.84566705 258.0256958 33.08827209 C254.66888899 36.44536475 251.30901711 39.79937431 247.94857073 43.15282321 C244.4313958 46.66372916 240.91706956 50.17748424 237.4024353 53.69093323 C230.75352129 60.33674436 224.10206319 66.98000316 217.44967878 73.62234026 C209.87333824 81.18748724 202.29985118 88.75548811 194.72659802 96.32372558 C179.15422993 111.88565291 163.57829634 127.4440073 148 143 C149.58472072 146.89199692 152.23853415 149.51326664 155.17581177 152.4163208 C155.70838242 152.95060031 156.24095308 153.48487981 156.78966224 154.03534961 C158.57527074 155.82425212 160.36793315 157.60591297 162.16064453 159.38769531 C163.44214097 160.66862762 164.7231972 161.95000046 166.00384521 163.23178101 C169.48262237 166.71113259 172.96753689 170.18427803 176.45356989 173.65635777 C180.09532696 177.28562265 183.73143095 180.92054216 187.36813354 184.55487061 C194.2560149 191.43653275 201.1489792 198.31308024 208.04377544 205.18781352 C215.89283488 213.0145277 223.7362243 220.84691341 231.57913804 228.67978525 C247.71311561 244.79285084 263.8542154 260.89876605 280 277 C279.05052441 278.11677492 278.09975103 279.23244654 277.1484375 280.34765625 C276.61911621 280.96906494 276.08979492 281.59047363 275.54443359 282.23071289 C273.78334607 284.2481965 271.93011408 286.14412108 270 288 C266.6976275 286.55739254 264.52164114 284.76899975 261.98402405 282.22453308 C260.80021904 281.04485207 260.80021904 281.04485207 259.59249878 279.84133911 C258.73576569 278.97741547 257.87903259 278.11349182 256.99633789 277.22338867 C256.08694962 276.31429245 255.17756134 275.40519623 254.24061584 274.46855164 C251.74849502 271.97700463 249.26259061 269.47933752 246.77774739 266.98053527 C244.17316306 264.36343061 241.562897 261.75200537 238.95323181 259.13996887 C234.00769271 254.18821204 229.06727116 249.23138181 224.1286692 244.27270728 C218.52623273 238.64798687 212.91818354 233.0288772 207.30962002 227.41026723 C197.71636346 217.79963586 188.12734461 208.18479536 178.54302979 198.56524658 C177.0095339 197.02615453 175.47586541 195.48723442 173.94197273 193.94853783 C172.76466802 192.76725308 171.58791823 191.58541445 170.41219902 190.40255165 C167.64802643 187.62589389 164.79464891 184.98821346 161.875 182.375 C152.91394275 174.26926304 144.49775363 165.58454716 136 157 C131.97345806 158.8472003 129.28406924 161.52506629 126.25 164.6875 C123.10409245 167.94576139 119.93854208 171.08891595 116.48376465 174.0216217 C111.07732491 178.73072221 106.05145743 183.81637508 100.99414062 188.89233398 C99.90944562 189.97731161 98.82452928 191.062068 97.7394104 192.1466217 C94.81624725 195.0694998 91.89616167 197.99543463 88.97664833 200.92195773 C85.91685979 203.98802871 82.85420913 207.05123812 79.79187012 210.11476135 C74.00315643 215.906574 68.21699499 221.70092937 62.43176222 227.49621874 C55.84118676 234.09800005 49.24774663 240.69691716 42.65407276 247.29560363 C29.09954115 260.86056712 15.54858377 274.42909598 2 288 C-1.41059403 286.39464713 -3.61792484 284.59481099 -6.25 281.875 C-6.95640625 281.15054687 -7.6628125 280.42609375 -8.390625 279.6796875 C-8.92171875 279.12539063 -9.4528125 278.57109375 -10 278 C-4.35821271 271.11371554 1.95061611 264.91579866 8.24755859 258.63891602 C9.49002208 257.39673494 10.73226473 256.15433295 11.9743042 254.91172791 C15.33111101 251.55463525 18.69098289 248.20062569 22.05142927 244.84717679 C25.5686042 241.33627084 29.08293044 237.82251576 32.5975647 234.30906677 C39.24647871 227.66325564 45.89793681 221.01999684 52.55032122 214.37765974 C60.12666176 206.81251276 67.70014882 199.24451189 75.27340198 191.67627442 C90.84577007 176.11434709 106.42170366 160.5559927 122 145 C120.42321794 141.147275 117.82284738 138.54512335 114.91357422 135.66633606 C114.3905818 135.14092922 113.86758938 134.61552239 113.3287487 134.07419413 C111.57545311 132.31526374 109.81510145 130.56357144 108.0546875 128.81176758 C106.79614727 127.55215443 105.53804012 126.29210846 104.28033447 125.03166199 C100.86351138 121.6099897 97.44046779 118.19460312 94.01615143 114.78043199 C90.43701075 111.21006835 86.86313657 107.63444027 83.28857422 104.05949402 C77.28628199 98.05813845 71.28012819 92.06066973 65.27148438 86.06567383 C58.317621 79.12754669 51.36900883 72.18419602 44.42337608 65.23782998 C37.74841031 58.5622546 31.07059494 51.88953785 24.39117432 45.21842003 C21.54513227 42.37591485 18.69994679 39.53255632 15.85540771 36.68854713 C12.50896443 33.34310587 9.15999131 30.00021782 5.80901337 26.65931892 C4.5769896 25.43022418 3.34581873 24.20027384 2.11554718 22.9694252 C0.44147313 21.29486294 -1.2356263 19.62339222 -2.91357422 17.95271301 C-3.40442568 17.46031295 -3.89527714 16.96791289 -4.40100288 16.46059161 C-6.95846397 13.90835145 -6.95846397 13.90835145 -10 12 C-10 9 -10 9 -8.3203125 7.24609375 C-7.59585938 6.64925781 -6.87140625 6.05242188 -6.125 5.4375 C-5.04605469 4.53837891 -5.04605469 4.53837891 -3.9453125 3.62109375 C-3.30335937 3.08613281 -2.66140625 2.55117188 -2 2 C-1.34 1.34 -0.68 0.68 0 0 Z " fill="#F9F9F9" transform="translate(65,56)"/>
</svg>
